<svg xmlns="http://www.w3.org/2000/svg" fill="none" viewBox="0 0 216 24"><g clip-path="url(#a)"><path fill="#000" d="M29.886 5.13h9.724v2.281h-7.111v3.732h6.737v2.198H32.5v4.146h7.483v2.322H29.886zm15.41 9.392-3.587-4.665h2.986l2.156 3.089 2.218-3.089h2.862l-3.566 4.665 4.063 5.286h-3.026L46.81 16.18l-2.612 3.628h-2.944zm10.539-4.665v1.389h.062c.498-.788 1.617-1.68 3.441-1.68 2.84 0 4.83 2.282 4.83 5.225 0 2.903-1.866 5.308-4.892 5.308-1.39 0-2.654-.622-3.297-1.617h-.041V24H53.45V9.857zm2.944 1.742c-1.824 0-2.923 1.679-2.923 3.234 0 1.556 1.1 3.193 2.923 3.193 1.928 0 2.862-1.68 2.862-3.235s-.933-3.192-2.862-3.192m16.733 4.021h-7.568c.104 1.41 1.39 2.447 2.84 2.447 1.245 0 2.074-.498 2.634-1.285l1.658 1.327c-.974 1.327-2.384 1.99-4.27 1.99-3.069 0-5.35-1.97-5.35-5.204 0-3.213 2.26-5.328 5.266-5.328 2.778 0 4.81 1.803 4.81 5.39 0 .228 0 .436-.02.664m-2.468-1.782c0-1.285-.725-2.405-2.342-2.405-1.473 0-2.654 1.016-2.758 2.405zm3.907-3.982h2.384v1.659h.041c.54-1.14 1.597-1.95 2.903-1.95.186 0 .435.021.6.063v2.28a3 3 0 0 0-.767-.103c-2.239 0-2.674 1.948-2.674 2.674v5.328H76.95zm6.763 1.991v-1.99h1.742V6.976h2.447v2.882h2.487v1.99h-2.487v4.623c0 .892.207 1.534 1.305 1.534.332 0 .768-.062 1.058-.207l.083 1.948c-.435.166-1.099.27-1.658.27-2.633 0-3.235-1.617-3.235-3.525v-4.644h-1.742m44.446-6.384V7.64h-5.827l-.141 3.085c.443-.121 1.169-.181 1.673-.181 2.803 0 4.92 1.633 4.92 4.516 0 3.165-2.359 5.04-5.202 5.04-2.379 0-4.073-1.21-4.819-3.125l2.198-.806c.403 1.129 1.411 1.875 2.681 1.875 1.432 0 2.662-.988 2.662-2.722 0-2.198-1.633-2.843-3.186-2.843-1.088 0-2.459.343-3.326.786l.242-7.802zm-16.036 0h2.944l-3.65 5.282.021.02c.383-.161 1.028-.242 1.512-.242 2.52 0 4.556 1.976 4.556 4.577 0 3.024-2.278 5-5.201 5-2.984 0-5.222-2.137-5.222-4.9 0-1.632.544-2.741 1.472-4.213zm-2.581 9.798c0 1.492 1.069 2.783 2.742 2.783 1.633 0 2.742-1.13 2.742-2.823 0-1.613-1.088-2.782-2.701-2.782-1.633 0-2.783 1.149-2.783 2.822M98.65 13.265V11.33h.644c1.432 0 3.045-.403 3.045-2.157 0-1.29-1.049-2.057-2.258-2.057-1.17 0-1.996.746-2.279 1.835l-2.278-.585c.504-1.915 2.38-3.266 4.657-3.266 2.5 0 4.597 1.35 4.597 3.911 0 1.533-1.008 2.843-2.56 3.226v.04c1.734.343 2.943 1.674 2.943 3.428 0 2.964-2.56 4.395-4.98 4.395-2.399 0-4.415-.988-5.181-3.367l2.258-.706c.343 1.13 1.33 2.017 2.843 2.017 1.25 0 2.621-.646 2.621-2.36 0-1.854-1.956-2.419-3.468-2.419z"/><path fill="#D52B1E" d="M12.042 24c6.627 0 12-5.373 12-12s-5.373-12-12-12-12 5.373-12 12 5.373 12 12 12"/><path fill="#fff" d="M9.36 16.397a51 51 0 0 1-3.973-3.182A36 36 0 0 0 4.13 16.36c2.024 1.717 4.73 3.685 6.587 4.792 2.408-6.235 6.165-10.3 9.76-13.139a9.4 9.4 0 0 0-1.843-2.616 33.6 33.6 0 0 0-9.275 11"/><path fill="#000" d="m215.636 11.593-1.079.809c-.415-.81-1.307-1.37-2.386-1.37-1.016 0-2.054.436-2.054 1.515 0 .913.726 1.328 2.324 1.66 2.282.477 3.361 1.328 3.361 2.842 0 2.22-1.867 3.009-3.652 3.009-1.473 0-2.946-.581-3.838-1.889l1.121-.83c.497.851 1.556 1.515 2.697 1.515 1.203 0 2.282-.435 2.282-1.701 0-1.017-1.017-1.432-2.863-1.867-1.141-.27-2.78-.768-2.78-2.614 0-1.971 1.701-2.822 3.464-2.822 1.349 0 2.78.643 3.403 1.743m-8.804 0-1.079.809c-.414-.81-1.307-1.37-2.385-1.37-1.017 0-2.054.436-2.054 1.515 0 .913.726 1.328 2.323 1.66 2.282.477 3.361 1.328 3.361 2.842 0 2.22-1.867 3.009-3.651 3.009-1.473 0-2.946-.581-3.838-1.889l1.12-.83c.498.851 1.556 1.515 2.697 1.515 1.203 0 2.282-.435 2.282-1.701 0-1.017-1.016-1.432-2.863-1.867-1.141-.27-2.78-.768-2.78-2.614 0-1.971 1.701-2.822 3.465-2.822 1.348 0 2.78.643 3.402 1.743m-16.499 2.614h6.618c-.083-1.826-1.203-3.174-3.215-3.174-1.888 0-3.278 1.514-3.403 3.174m8.05.456c0 .187 0 .415-.021.664h-8.049c.041 1.95 1.556 3.527 3.547 3.527 1.453 0 2.573-.809 3.112-1.68l1.058.83c-1.141 1.452-2.572 2.053-4.17 2.053-2.884 0-5.02-2.178-5.02-5.103s2.136-5.104 4.896-5.104c3.049 0 4.647 2.158 4.647 4.813M178.289 10.1h1.348c.042.518.083 1.244.083 1.659h.042c.539-1.12 1.95-1.909 3.319-1.909 2.469 0 3.693 1.598 3.693 4.004v5.954h-1.411v-5.373c0-2.033-.601-3.402-2.634-3.402-1.494 0-2.946 1.203-2.946 3.796v4.98h-1.411v-7.573c0-.519-.021-1.473-.083-2.137m-2.635.001v9.708h-1.411V10.1zm.291-3.735c0 .58-.498.996-.996.996s-.996-.415-.996-.996.498-.996.996-.996.996.415.996.996m-4.074 5.228-1.078.809c-.415-.81-1.307-1.37-2.386-1.37-1.017 0-2.054.436-2.054 1.515 0 .913.726 1.328 2.323 1.66 2.283.477 3.361 1.328 3.361 2.842 0 2.22-1.867 3.009-3.651 3.009-1.473 0-2.946-.581-3.838-1.889l1.12-.83c.498.851 1.556 1.515 2.697 1.515 1.203 0 2.282-.435 2.282-1.701 0-1.017-1.016-1.432-2.863-1.867-1.141-.27-2.78-.768-2.78-2.614 0-1.971 1.701-2.822 3.465-2.822 1.348 0 2.78.643 3.402 1.743m-8.86 8.216h-1.348a25 25 0 0 1-.083-1.66h-.042c-.539 1.12-1.95 1.908-3.319 1.908-2.469 0-3.693-1.597-3.693-4.004V10.1h1.411v5.374c0 2.033.602 3.402 2.635 3.402 1.493 0 2.946-1.203 2.946-3.797V10.1h1.41v7.573c0 .518.021 1.473.083 2.136m-20.471 0V5.12h4.378c2.24 0 4.73.81 4.73 3.755 0 1.535-1.038 2.8-2.594 3.154v.041c1.909.207 3.32 1.535 3.32 3.672 0 2.448-2.096 4.066-5.477 4.066zm1.494-13.403v5.145h3.008c1.432 0 3.112-.622 3.112-2.572 0-1.867-1.597-2.573-3.527-2.573zm0 6.37v5.746h2.78c2.157 0 4.045-.809 4.045-2.863 0-1.93-1.39-2.884-3.775-2.884zM134.8 0h1.24v24h-1.24z"/></g><defs><clipPath id="a"><path fill="#fff" d="M0 0h216v24H0z"/></clipPath></defs></svg>