<svg width="114" height="24" viewBox="0 0 114 24" fill="none" xmlns="http://www.w3.org/2000/svg">
<path d="M12.0139 24.0281C18.6491 24.0281 24.0281 18.6491 24.0281 12.014C24.0281 5.37886 18.6491 0 12.0139 0C5.37873 0 0 5.37886 0 12.014C0 18.6491 5.37873 24.0281 12.0139 24.0281Z" fill="#D52B1E"/>
<path d="M9.34946 16.3929C7.94601 15.3972 6.62792 14.3352 5.35728 13.1974C4.89283 14.193 4.49465 15.255 4.09619 16.3265C6.09692 18.0522 8.81846 19.9865 10.6864 21.115C13.0757 14.9326 16.8121 10.8647 20.3963 8.01055C19.9316 7.0149 19.3343 6.14253 18.5281 5.42188C14.7353 8.34243 11.6063 12.0689 9.34946 16.3929Z" fill="white"/>
<path d="M26.9766 12.535V10.373H28.8725V7.23438H31.5376V10.373H34.2496V12.535H31.5376V17.5701C31.5376 18.5467 31.7656 19.2389 32.9591 19.2389C33.3196 19.2389 33.8032 19.163 34.1078 19.0114L34.203 21.1353C33.7284 21.3155 32.9984 21.4293 32.4005 21.4293C29.5282 21.4293 28.8725 19.6656 28.8725 17.5985V12.5444H26.9766V12.535Z" fill="black"/>
<path d="M45.6188 21.2009H43.0489V19.4562H43.0116C42.537 20.5466 41.2484 21.5045 39.6458 21.5045C36.8294 21.5045 35.6436 19.3425 35.6436 17.1236V10.3438H38.346V16.3555C38.346 17.6356 38.6411 19.2476 40.3762 19.2476C42.1113 19.2476 42.9068 17.7589 42.9068 16.3176V10.3627H45.6188V21.2009Z" fill="black"/>
<path d="M50.9469 10.3615V12.1631H50.9859C51.5744 10.9209 52.7305 10.0391 54.1424 10.0391C54.3516 10.0391 54.6167 10.058 54.7981 10.1149V12.5993C54.4375 12.5045 54.2095 12.4855 53.9537 12.4855C51.5163 12.4855 51.0421 14.6095 51.0421 15.3965V21.1999H48.3301V10.3615H50.9374H50.9469Z" fill="black"/>
<path d="M58.8755 4.13281V11.7376H58.9503C59.5107 11.0359 60.6014 10.0497 62.5923 10.0497C65.6834 10.0497 67.8556 12.5341 67.8556 15.7391C67.8556 18.944 65.8252 21.5233 62.5252 21.5233C61.0085 21.5233 59.5385 20.8215 58.8084 19.5889H58.7711V21.2197H56.2012V4.13281H58.8848H58.8755ZM61.9759 12.2591C59.985 12.2591 58.7896 14.0892 58.7896 15.777C58.7896 17.4648 59.9943 19.257 61.9759 19.257C64.0808 19.257 65.0951 17.4364 65.0951 15.7391C65.0951 14.0418 64.0808 12.2591 61.9759 12.2591Z" fill="black"/>
<path d="M75.2518 10.0508C78.5226 10.0508 81.149 12.3265 81.149 15.7401C81.149 19.1538 78.5226 21.5244 75.2518 21.5244C71.9796 21.5244 69.3535 19.1538 69.3535 15.7401C69.3535 12.3265 71.9703 10.0508 75.2518 10.0508ZM75.2518 19.2581C77.3935 19.2581 78.389 17.4374 78.389 15.7401C78.389 14.0428 77.3935 12.2601 75.2518 12.2601C73.1076 12.2601 72.1122 14.0428 72.1122 15.7401C72.1122 17.4374 73.1076 19.2581 75.2518 19.2581Z" fill="black"/>
<path d="M81.7842 12.535V10.373H83.6796V7.23438H86.3442V10.373H89.0578V12.535H86.3442V17.5701C86.3442 18.5467 86.5733 19.2389 87.7678 19.2389C88.1278 19.2389 88.6105 19.163 88.916 19.0114L89.0087 21.1353C88.5369 21.3155 87.806 21.4293 87.2087 21.4293C84.3369 21.4293 83.6796 19.6656 83.6796 17.5985V12.5444H81.7842V12.535Z" fill="black"/>
<path d="M97.5156 19.8152H97.4393C96.8993 20.773 95.6202 21.4652 94.0738 21.4652C92.3284 21.4652 90.0156 20.6307 90.0156 18.099C90.0156 14.8655 94.0738 14.4199 97.4693 14.4199V14.1544C97.4693 12.8174 96.3402 12.1631 94.9847 12.1631C93.8365 12.1631 92.7293 12.7036 92.0338 13.4053L90.632 11.7554C91.8565 10.627 93.5611 10.0391 95.2111 10.0391C99.0974 10.0391 100.038 12.4286 100.038 14.6V21.1903H97.5047V19.8152H97.5156ZM97.4774 16.2594H96.8693C95.1538 16.2594 92.7374 16.468 92.7374 18.0611C92.7374 19.0947 93.7138 19.417 94.6329 19.417C96.4902 19.417 97.4856 18.3644 97.4856 16.6387V16.2594H97.4774Z" fill="black"/>
<path d="M105.681 15.4441L101.773 10.3711H105.024L107.377 13.7373L109.794 10.3711H112.916L109.027 15.4441L113.456 21.1998H110.165L107.347 17.2552L104.495 21.1998H101.29L105.689 15.4441H105.681Z" fill="black"/>
</svg>
