<svg width="24" height="24" viewBox="0 0 24 24" fill="none" xmlns="http://www.w3.org/2000/svg">
<path fill-rule="evenodd" clip-rule="evenodd" d="M22.049 18.0276L13.749 3.08659C13.5756 2.77484 13.3221 2.51512 13.0145 2.33437C12.707 2.15362 12.3567 2.0584 12 2.05859C11.6436 2.05876 11.2938 2.15414 10.9866 2.33488C10.6795 2.51561 10.4262 2.77514 10.253 3.08659L1.95301 18.0276C1.78375 18.332 1.69691 18.6753 1.70107 19.0235C1.70523 19.3717 1.80026 19.7129 1.97675 20.0131C2.15323 20.3133 2.40506 20.5623 2.70731 20.7353C3.00955 20.9083 3.35174 20.9994 3.70001 20.9996H20.3C20.6484 20.9996 20.9907 20.9086 21.2931 20.7357C21.5954 20.5627 21.8474 20.3138 22.024 20.0135C22.2006 19.7133 22.2957 19.3721 22.2999 19.0238C22.3042 18.6754 22.2183 18.332 22.049 18.0276ZM11 9V14C11 14.2652 11.1054 14.5196 11.2929 14.7071C11.4804 14.8946 11.7348 15 12 15C12.2652 15 12.5196 14.8946 12.7071 14.7071C12.8946 14.5196 13 14.2652 13 14V9C13 8.73478 12.8946 8.48043 12.7071 8.29289C12.5196 8.10536 12.2652 8 12 8C11.7348 8 11.4804 8.10536 11.2929 8.29289C11.1054 8.48043 11 8.73478 11 9ZM11.4444 16.1685C11.6089 16.0586 11.8022 16 12 16C12.2652 16 12.5196 16.1054 12.7071 16.2929C12.8946 16.4804 13 16.7348 13 17C13 17.1978 12.9414 17.3911 12.8315 17.5556C12.7216 17.72 12.5654 17.8482 12.3827 17.9239C12.2 17.9996 11.9989 18.0194 11.8049 17.9808C11.6109 17.9422 11.4327 17.847 11.2929 17.7071C11.153 17.5673 11.0578 17.3891 11.0192 17.1951C10.9806 17.0011 11.0004 16.8 11.0761 16.6173C11.1518 16.4346 11.28 16.2784 11.4444 16.1685Z" fill="#21262A"/>
</svg>
