<svg width="24" height="24" viewBox="0 0 24 24" fill="none" xmlns="http://www.w3.org/2000/svg">
<path d="M18.223 3H17C17 2.73478 16.8946 2.48043 16.7071 2.29289C16.5196 2.10536 16.2652 2 16 2C15.7348 2 15.4804 2.10536 15.2929 2.29289C15.1054 2.48043 15 2.73478 15 3H9C9 2.73478 8.89464 2.48043 8.70711 2.29289C8.51957 2.10536 8.26522 2 8 2C7.73478 2 7.48043 2.10536 7.29289 2.29289C7.10536 2.48043 7 2.73478 7 3H5.777C5.04065 3.00106 4.33477 3.29411 3.81418 3.81489C3.29359 4.33566 3.00079 5.04165 3 5.778V18.222C3.00079 18.9584 3.29359 19.6643 3.81418 20.1851C4.33477 20.7059 5.04065 20.9989 5.777 21H18.223C18.9594 20.9989 19.6652 20.7059 20.1858 20.1851C20.7064 19.6643 20.9992 18.9584 21 18.222V5.778C20.9992 5.04165 20.7064 4.33566 20.1858 3.81489C19.6652 3.29411 18.9594 3.00106 18.223 3ZM5.777 5H7C7 5.26522 7.10536 5.51957 7.29289 5.70711C7.48043 5.89464 7.73478 6 8 6C8.26522 6 8.51957 5.89464 8.70711 5.70711C8.89464 5.51957 9 5.26522 9 5H15C15 5.26522 15.1054 5.51957 15.2929 5.70711C15.4804 5.89464 15.7348 6 16 6C16.2652 6 16.5196 5.89464 16.7071 5.70711C16.8946 5.51957 17 5.26522 17 5H18.223C18.4291 5.00053 18.6266 5.0827 18.7722 5.22852C18.9178 5.37433 18.9997 5.57192 19 5.778V7H5V5.778C5.00026 5.57192 5.08218 5.37433 5.22781 5.22852C5.37344 5.0827 5.57092 5.00053 5.777 5ZM18.223 19H5.777C5.57092 18.9995 5.37344 18.9173 5.22781 18.7715C5.08218 18.6257 5.00026 18.4281 5 18.222V9H19V18.222C18.9997 18.4281 18.9178 18.6257 18.7722 18.7715C18.6266 18.9173 18.4291 18.9995 18.223 19Z" fill="#21262A"/>
<path d="M12 10C11.7348 10 11.4804 10.1054 11.2929 10.2929C11.1054 10.4804 11 10.7348 11 11V14C11 14.2652 11.1054 14.5196 11.2929 14.7071C11.4804 14.8946 11.7348 15 12 15C12.2652 15 12.5196 14.8946 12.7071 14.7071C12.8946 14.5196 13 14.2652 13 14V11C13 10.7348 12.8946 10.4804 12.7071 10.2929C12.5196 10.1054 12.2652 10 12 10Z" fill="#21262A"/>
<path d="M12 18C12.5523 18 13 17.5523 13 17C13 16.4477 12.5523 16 12 16C11.4477 16 11 16.4477 11 17C11 17.5523 11.4477 18 12 18Z" fill="#21262A"/>
</svg>
