<svg width="24" height="24" viewBox="0 0 24 24" fill="none" xmlns="http://www.w3.org/2000/svg">
<path d="M20.133 3.891C19.8557 3.61112 19.5256 3.38905 19.1619 3.23765C18.7981 3.08625 18.408 3.00854 18.014 3.009H17.014C17.014 2.74378 16.9086 2.48943 16.7211 2.30189C16.5335 2.11436 16.2792 2.009 16.014 2.009C15.7487 2.009 15.4944 2.11436 15.3069 2.30189C15.1193 2.48943 15.014 2.74378 15.014 3.009L9.01397 3C9.01397 2.73478 8.90861 2.48043 8.72107 2.29289C8.53354 2.10536 8.27918 2 8.01397 2C7.74875 2 7.4944 2.10536 7.30686 2.29289C7.11932 2.48043 7.01397 2.73478 7.01397 3H6.01397C5.21832 3 4.45526 3.31607 3.89265 3.87868C3.33004 4.44129 3.01397 5.20435 3.01397 6V7.982V7.992L2.99097 17.986C2.99097 18.7808 3.30635 19.5431 3.86788 20.1056C4.42941 20.668 5.19118 20.9847 5.98597 20.986L17.986 21.004C18.7816 21.004 19.5447 20.6879 20.1073 20.1253C20.6699 19.5627 20.986 18.7996 20.986 18.004L21.004 6.004C21.005 5.61181 20.9286 5.22328 20.7791 4.86068C20.6296 4.49809 20.4101 4.16856 20.133 3.891ZM6.00897 4.991H7.00897C7.00897 5.25622 7.11432 5.51057 7.30186 5.69811C7.4894 5.88564 7.74375 5.991 8.00897 5.991C8.27418 5.991 8.52854 5.88564 8.71607 5.69811C8.90361 5.51057 9.00897 5.25622 9.00897 4.991L15.009 5C15.009 5.26522 15.1143 5.51957 15.3019 5.70711C15.4894 5.89464 15.7438 6 16.009 6C16.2742 6 16.5285 5.89464 16.7161 5.70711C16.9036 5.51957 17.009 5.26522 17.009 5H18.009C18.2742 5 18.5285 5.10536 18.7161 5.29289C18.9036 5.48043 19.009 5.73478 19.009 6V6.987L5.00897 6.966V5.979C5.01212 5.71587 5.11887 5.46459 5.30607 5.27964C5.49326 5.09469 5.74582 4.99098 6.00897 4.991ZM17.991 19.009L5.99097 18.991C5.72575 18.991 5.4714 18.8856 5.28386 18.6981C5.09632 18.5106 4.99097 18.2562 4.99097 17.991L4.99997 8.977L19 9L18.987 18.012C18.9862 18.276 18.881 18.529 18.6944 18.7158C18.5078 18.9025 18.255 19.0079 17.991 19.009Z" fill="#21262A"/>
</svg>
