<svg width="24" height="24" viewBox="0 0 24 24" fill="none" xmlns="http://www.w3.org/2000/svg">
<path d="M11.9929 16C11.8614 16 11.7311 15.974 11.6096 15.9236C11.4881 15.8733 11.3778 15.7995 11.2849 15.7064L5.29291 9.70598C5.2 9.61313 5.12631 9.50292 5.07605 9.38164C5.0258 9.26036 4.99995 9.13039 5 8.99913C5.00005 8.86788 5.02598 8.73792 5.07632 8.61667C5.12667 8.49543 5.20043 8.38527 5.29341 8.29249C5.38639 8.19971 5.49675 8.12613 5.6182 8.07595C5.73966 8.02576 5.86982 7.99995 6.00126 8C6.1327 8.00005 6.26285 8.02595 6.38427 8.07622C6.50569 8.12649 6.616 8.20015 6.70891 8.29299L11.9949 13.5854L17.2949 8.30797C17.4827 8.12086 17.7372 8.0159 18.0025 8.01618C18.2677 8.01647 18.522 8.12196 18.7094 8.30947C18.8968 8.49697 19.0019 8.75113 19.0016 9.01602C19.0013 9.28091 18.8957 9.53485 18.7079 9.72195L12.6989 15.7084C12.5115 15.8951 12.2576 15.9999 11.9929 16Z" fill="#21262A"/>
</svg>
