<svg width="24" height="24" viewBox="0 0 24 24" fill="none" xmlns="http://www.w3.org/2000/svg">
<path d="M13.4319 11.9841L18.7319 6.69914C18.8275 6.60702 18.9039 6.49679 18.9565 6.37486C19.009 6.25293 19.0368 6.12175 19.0381 5.98898C19.0395 5.85621 19.0144 5.7245 18.9642 5.60154C18.9141 5.47857 18.84 5.36682 18.7463 5.2728C18.6525 5.17878 18.541 5.10437 18.4182 5.05391C18.2954 5.00346 18.1637 4.97797 18.0309 4.97893C17.8982 4.97989 17.7669 5.00729 17.6448 5.05952C17.5228 5.11175 17.4123 5.18777 17.3199 5.28314L12.0199 10.5681L6.73492 5.26814C6.6434 5.17027 6.53314 5.0918 6.4107 5.03737C6.28826 4.98295 6.15613 4.95369 6.02216 4.95133C5.88819 4.94897 5.75511 4.97355 5.63083 5.02362C5.50654 5.0737 5.39359 5.14824 5.29868 5.24282C5.20376 5.33739 5.12882 5.45008 5.07831 5.57419C5.0278 5.69829 5.00274 5.83128 5.00463 5.96526C5.00652 6.09924 5.03531 6.23147 5.0893 6.3541C5.14329 6.47674 5.22138 6.58727 5.31892 6.67914L10.6039 11.9791L5.29992 17.2651C5.20429 17.3572 5.12796 17.4675 5.07538 17.5894C5.02281 17.7113 4.99504 17.8425 4.9937 17.9753C4.99237 18.1081 5.01748 18.2398 5.06759 18.3627C5.1177 18.4857 5.19179 18.5975 5.28555 18.6915C5.3793 18.7855 5.49084 18.8599 5.61366 18.9104C5.73648 18.9608 5.86812 18.9863 6.0009 18.9853C6.13367 18.9844 6.26493 18.957 6.38701 18.9048C6.50908 18.8525 6.61953 18.7765 6.71192 18.6811L12.0119 13.3961L17.2999 18.7001C17.392 18.7958 17.5023 18.8721 17.6242 18.9247C17.7461 18.9772 17.8773 19.005 18.0101 19.0064C18.1428 19.0077 18.2746 18.9826 18.3975 18.9325C18.5205 18.8824 18.6322 18.8083 18.7263 18.7145C18.8203 18.6208 18.8947 18.5092 18.9451 18.3864C18.9956 18.2636 19.0211 18.1319 19.0201 17.9992C19.0192 17.8664 18.9918 17.7351 18.9395 17.613C18.8873 17.491 18.8113 17.3805 18.7159 17.2881L13.4319 11.9841Z" fill="#21262A"/>
</svg>
