<svg width="24" height="24" viewBox="0 0 24 24" fill="none" xmlns="http://www.w3.org/2000/svg">
<path d="M17 22H7C6.46957 22 5.96086 21.7893 5.58579 21.4142C5.21071 21.0391 5 20.5304 5 20V17C5.00101 15.9798 5.31366 14.9842 5.8961 14.1465C6.47854 13.3089 7.30296 12.6692 8.259 12.313C7.44889 11.3994 7.00107 10.221 7 9V7C7 5.67392 7.52678 4.40215 8.46447 3.46447C9.40215 2.52678 10.6739 2 12 2C13.3261 2 14.5979 2.52678 15.5355 3.46447C16.4732 4.40215 17 5.67392 17 7V9C17.0008 10.2209 16.5544 11.3999 15.745 12.314C16.7001 12.6708 17.5236 13.3106 18.1053 14.148C18.6869 14.9854 18.9991 15.9804 19 17V20C19 20.5304 18.7893 21.0391 18.4142 21.4142C18.0391 21.7893 17.5304 22 17 22ZM12 4C11.6058 3.99921 11.2153 4.07627 10.851 4.22675C10.4867 4.37723 10.1556 4.59818 9.87692 4.87692C9.59818 5.15565 9.37723 5.48668 9.22675 5.85101C9.07627 6.21535 8.99921 6.60581 9 7V9C9.00071 9.52592 9.13967 10.0424 9.40294 10.4977C9.66621 10.953 10.0445 11.331 10.5 11.594C10.652 11.6818 10.7783 11.808 10.866 11.96C10.9538 12.112 11 12.2845 11 12.46V13C11 13.2652 10.8946 13.5196 10.7071 13.7071C10.5196 13.8946 10.2652 14 10 14C9.20435 14 8.44129 14.3161 7.87868 14.8787C7.31607 15.4413 7 16.2044 7 17V20H17V17C17 16.2044 16.6839 15.4413 16.1213 14.8787C15.5587 14.3161 14.7956 14 14 14C13.7348 14 13.4804 13.8946 13.2929 13.7071C13.1054 13.5196 13 13.2652 13 13V12.46C13.0001 12.2834 13.0469 12.1099 13.1358 11.9573C13.2247 11.8046 13.3524 11.6783 13.506 11.591C13.7354 11.457 13.9474 11.2951 14.137 11.109C14.6909 10.5469 15.0009 9.78914 15 9V7C15.0008 6.60581 14.9237 6.21535 14.7732 5.85101C14.6228 5.48668 14.4018 5.15565 14.1231 4.87692C13.8444 4.59818 13.5133 4.37723 13.149 4.22675C12.7847 4.07627 12.3942 3.99921 12 4Z" fill="#21262A"/>
<path d="M11 15H13L12 16L11 15Z" fill="#21262A"/>
<path d="M11.9999 16.5C11.9341 16.5 11.869 16.487 11.8082 16.4618C11.7475 16.4365 11.6923 16.3996 11.6459 16.353L10.6459 15.353C10.5761 15.283 10.5287 15.1939 10.5095 15.097C10.4903 15.0001 10.5003 14.8996 10.5382 14.8083C10.5761 14.7171 10.6401 14.6391 10.7223 14.5842C10.8045 14.5293 10.9011 14.5 10.9999 14.5H12.9999C13.0987 14.5 13.1953 14.5293 13.2775 14.5842C13.3597 14.6391 13.4237 14.7171 13.4616 14.8083C13.4995 14.8996 13.5095 15.0001 13.4903 15.097C13.4711 15.1939 13.4237 15.283 13.3539 15.353L12.3539 16.353C12.3075 16.3996 12.2523 16.4365 12.1915 16.4618C12.1308 16.487 12.0657 16.5 11.9999 16.5Z" fill="#21262A"/>
<path d="M13 18L12 19L11 18L12 15L13 18Z" fill="#21262A"/>
<path d="M12 19.5001C11.9342 19.5001 11.8691 19.4871 11.8083 19.4619C11.7476 19.4367 11.6924 19.3997 11.646 19.3531L10.646 18.3531C10.5804 18.2875 10.5343 18.205 10.513 18.1148C10.4916 18.0245 10.4957 17.9301 10.525 17.8421L11.525 14.8421C11.5662 14.7506 11.6329 14.673 11.7172 14.6186C11.8014 14.5641 11.8996 14.5352 12 14.5352C12.1003 14.5352 12.1985 14.5641 12.2827 14.6186C12.367 14.673 12.4337 14.7506 12.475 14.8421L13.475 17.8421C13.5042 17.9301 13.5083 18.0245 13.4869 18.1148C13.4656 18.205 13.4195 18.2875 13.354 18.3531L12.354 19.3531C12.3075 19.3997 12.2523 19.4367 12.1916 19.4619C12.1309 19.4871 12.0657 19.5001 12 19.5001ZM11.572 17.8651L12 18.2931L12.428 17.8651L12 16.5811L11.572 17.8651Z" fill="#21262A"/>
</svg>
