<svg width="24" height="24" viewBox="0 0 24 24" fill="none" xmlns="http://www.w3.org/2000/svg">
<path d="M12.0003 22H11.9843C9.33415 21.9979 6.79343 20.9423 4.92101 19.0654C3.0486 17.1885 1.99788 14.6442 2 11.992C2.00212 9.33984 3.05691 6.79714 4.93232 4.92328C6.80773 3.04942 9.35014 1.99788 12.0003 2H12.0152C14.6654 2.00199 17.2061 3.05747 19.0786 4.93424C20.9511 6.81101 22.002 9.35534 22 12.0075C21.998 14.6597 20.9434 17.2024 19.068 19.0764C17.1927 20.9503 14.6504 22.002 12.0003 22ZM12.0003 4C9.88016 3.99841 7.84628 4.83974 6.34602 6.33891C4.84577 7.83807 4.00204 9.87227 4.00045 11.994C3.99886 14.1157 4.83954 16.1512 6.33754 17.6526C7.83555 19.154 9.86817 19.9984 11.9883 20H12.0003C14.1203 20.0015 16.1542 19.16 17.6543 17.6607C19.1545 16.1615 19.9981 14.1272 19.9995 12.0055C20.001 9.88377 19.1602 7.84836 17.6621 6.34704C16.164 4.84572 14.1313 4.00146 12.0112 4H12.0003Z" fill="#21262A"/>
<path d="M11.9983 9.00528C12.5502 9.00528 12.9977 8.55748 12.9977 8.00508C12.9977 7.45269 12.5502 7.00488 11.9983 7.00488C11.4463 7.00488 10.9988 7.45269 10.9988 8.00508C10.9988 8.55748 11.4463 9.00528 11.9983 9.00528Z" fill="#21262A"/>
<path fill-rule="evenodd" clip-rule="evenodd" d="M9.99941 16.0067C9.99941 15.4543 10.4469 15.0065 10.9988 15.0065H12.9977C13.5497 15.0065 13.9971 15.4543 13.9971 16.0067C13.9971 16.5591 13.5497 17.0069 12.9977 17.0069H10.9988C10.4469 17.0069 9.99941 16.5591 9.99941 16.0067Z" fill="#21262A"/>
<path fill-rule="evenodd" clip-rule="evenodd" d="M9.99941 11.0057C9.99941 10.4533 10.4469 10.0055 10.9988 10.0055H11.9983C12.2637 10.0055 12.5182 10.1111 12.7057 10.2991C12.8932 10.4871 12.9982 10.7421 12.9977 11.0077L12.9877 16.0087C12.9866 16.5611 12.5382 17.008 11.9863 17.0069C11.4343 17.0058 10.9877 16.5571 10.9888 16.0047L10.9968 12.0059C10.4458 12.0048 9.99941 11.5574 9.99941 11.0057Z" fill="#21262A"/>
</svg>
