<svg width="24" height="24" viewBox="0 0 24 24" fill="none" xmlns="http://www.w3.org/2000/svg">
<path d="M11.9999 15C11.8022 15 11.6088 15.0587 11.4444 15.1685C11.2799 15.2784 11.1518 15.4346 11.0761 15.6173C11.0004 15.8 10.9806 16.0011 11.0192 16.1951C11.0577 16.3891 11.153 16.5673 11.2928 16.7071C11.4327 16.847 11.6109 16.9422 11.8049 16.9808C11.9988 17.0194 12.1999 16.9996 12.3826 16.9239C12.5654 16.8482 12.7215 16.72 12.8314 16.5556C12.9413 16.3911 12.9999 16.1978 12.9999 16C12.9999 15.7348 12.8946 15.4804 12.7071 15.2929C12.5195 15.1054 12.2652 15 11.9999 15Z" fill="#21262A"/>
<path d="M14.9999 10C14.9984 9.20485 14.6818 8.4427 14.1195 7.88044C13.5572 7.31817 12.7951 7.00159 11.9999 7.00001C11.333 7.00219 10.6858 7.22656 10.1606 7.63765C9.63545 8.04874 9.26223 8.62311 9.09995 9.27001C9.06275 9.39872 9.0518 9.5336 9.06774 9.66663C9.08369 9.79966 9.1262 9.92813 9.19276 10.0444C9.25932 10.1607 9.34857 10.2624 9.4552 10.3435C9.56184 10.4246 9.68369 10.4835 9.81351 10.5166C9.94334 10.5497 10.0785 10.5564 10.211 10.5363C10.3434 10.5161 10.4705 10.4696 10.5846 10.3994C10.6987 10.3292 10.7976 10.2368 10.8753 10.1276C10.953 10.0185 11.008 9.89481 11.0369 9.76401C11.0926 9.54927 11.2167 9.35851 11.3904 9.22064C11.5642 9.08278 11.7782 9.00532 11.9999 9.00001C12.2647 9.00158 12.5181 9.10744 12.7053 9.29464C12.8925 9.48184 12.9984 9.73528 12.9999 10C12.9999 10.013 13.0069 10.024 13.0069 10.037C13.0069 10.05 12.9999 10.06 12.9999 10.073C12.9999 10.1658 12.9741 10.2567 12.9254 10.3357C12.8766 10.4146 12.8069 10.4784 12.7239 10.52L11.5519 11.104C11.3857 11.1873 11.2461 11.3152 11.1485 11.4735C11.051 11.6318 10.9996 11.8141 10.9999 12V13C10.9999 13.2652 11.1053 13.5196 11.2928 13.7071C11.4804 13.8947 11.7347 14 11.9999 14C12.2652 14 12.5195 13.8947 12.7071 13.7071C12.8946 13.5196 12.9999 13.2652 12.9999 13V12.617L13.6189 12.309C14.0427 12.0951 14.3973 11.7655 14.6417 11.3585C14.8861 10.9515 15.0103 10.4836 14.9999 10.009V10Z" fill="#21262A"/>
<path d="M19.0819 4.94001C18.1571 4.007 17.0564 3.26674 15.8435 2.76208C14.6306 2.25742 13.3296 1.9984 12.0159 2.00001H11.9999C9.34778 1.99789 6.8034 3.04942 4.92654 4.92328C3.04967 6.79715 1.99407 9.33984 1.99195 11.992C1.98982 14.6442 3.04136 17.1886 4.91522 19.0654C6.78909 20.9423 9.33178 21.9979 11.9839 22H11.9999C13.9764 22 15.9086 21.4143 17.5524 20.3168C19.1961 19.2194 20.4779 17.6594 21.2357 15.834C21.9934 14.0086 22.1933 11.9995 21.81 10.0606C21.4266 8.12164 20.4773 6.33977 19.0819 4.94001ZM17.6479 17.665C16.9073 18.4078 16.0268 18.9966 15.0575 19.3973C14.0881 19.7981 13.0489 20.0029 11.9999 20H11.9869C9.86522 19.9983 7.83107 19.1538 6.332 17.6523C4.83292 16.1508 3.99172 14.1152 3.99345 11.9935C3.99517 9.87178 4.83968 7.83763 6.34119 6.33856C7.8427 4.83949 9.87821 3.99828 11.9999 4.00001H12.0119C13.5941 4.00252 15.14 4.4741 16.4541 5.35514C17.7683 6.23617 18.7917 7.48709 19.3949 8.94973C19.9982 10.4124 20.1542 12.021 19.8432 13.5723C19.5323 15.1236 18.7683 16.5479 17.6479 17.665Z" fill="#21262A"/>
</svg>
