<svg width="24" height="24" viewBox="0 0 24 24" fill="none" xmlns="http://www.w3.org/2000/svg">
<path d="M21.7 20.3L16.31 14.91C17.5746 13.2955 18.1763 11.2596 17.9923 9.21698C17.8084 7.17437 16.8527 5.2787 15.3199 3.91608C13.7872 2.55347 11.7926 1.82639 9.74251 1.88295C7.69242 1.93951 5.74099 2.77545 4.28568 4.2205C2.83038 5.66556 1.98067 7.61103 1.90963 9.66067C1.83858 11.7103 2.55154 13.71 3.90329 15.2523C5.25504 16.7947 7.14391 17.7637 9.18517 17.9621C11.2264 18.1605 13.2665 17.5732 14.89 16.32L20.28 21.72C20.3729 21.8138 20.4835 21.8882 20.6054 21.9389C20.7272 21.9897 20.858 22.0158 20.99 22.0158C21.122 22.0158 21.2527 21.9897 21.3745 21.9389C21.4964 21.8882 21.607 21.8138 21.7 21.72C21.7937 21.6271 21.8681 21.5165 21.9189 21.3946C21.9696 21.2727 21.9958 21.142 21.9958 21.01C21.9958 20.878 21.9696 20.7473 21.9189 20.6255C21.8681 20.5036 21.7937 20.393 21.7 20.3ZM5.74997 14.24C4.91152 13.4006 4.34074 12.3315 4.10977 11.1678C3.8788 10.0041 3.99801 8.79807 4.45233 7.70211C4.90665 6.60614 5.67569 5.66946 6.66224 5.01047C7.64879 4.35147 8.80856 3.99975 9.99497 3.99975C11.1814 3.99975 12.3411 4.35147 13.3277 5.01047C14.3142 5.66946 15.0833 6.60614 15.5376 7.70211C15.9919 8.79807 16.1111 10.0041 15.8802 11.1678C15.6492 12.3315 15.0784 13.4006 14.24 14.24C13.6827 14.7979 13.021 15.2404 12.2926 15.5424C11.5642 15.8443 10.7835 15.9997 9.99497 15.9997C9.20647 15.9997 8.42571 15.8443 7.69732 15.5424C6.96894 15.2404 6.30721 14.7979 5.74997 14.24Z" fill="#21262A"/>
</svg>
