<svg xmlns="http://www.w3.org/2000/svg" viewBox="0 0 56 56"><rect width="56" height="56" rx="8" fill="#ffffff"/><path d="M38.5 17.5C37.1 15.7 34.6 15 31.3 15H21.8C21.1 15 20.5 15.5 20.4 16.2L16.5 40.3C16.4 40.8 16.8 41.3 17.3 41.3H22.7L24.1 32.6L24 33.1C24.1 32.4 24.7 31.9 25.4 31.9H28C33.5 31.9 37.8 29.6 39.1 23.2C39.1 23 39.2 22.8 39.2 22.6C39.1 22.6 39.1 22.6 39.2 22.6C39.5 20.3 39.2 18.7 38.5 17.5Z" fill="#009CDE"/><path d="M37.1 22.6C37 22.8 36.9 23 36.9 23.2C35.6 29.6 31.3 31.9 25.8 31.9H23.2C22.5 31.9 21.9 32.4 21.8 33.1L20 44.2C19.9 44.7 20.3 45.1 20.8 45.1H25.5C26.1 45.1 26.7 44.7 26.8 44.1L26.9 43.6L27.9 37.3L28 36.7C28.1 36.1 28.7 35.7 29.3 35.7H30.1C34.9 35.7 38.7 33.7 39.8 28.1C40.3 25.8 40.1 23.8 39 22.4C38.7 22.5 38.4 22.5 37.1 22.6Z" fill="#012169"/></svg>
