<svg width="24" height="24" viewBox="0 0 24 24" fill="none" xmlns="http://www.w3.org/2000/svg">
<path d="M18.014 15.9912C17.8824 15.9912 17.7522 15.9652 17.6307 15.9147C17.5092 15.8643 17.3988 15.7904 17.306 15.6972L12.0209 10.3972L6.72095 15.6822C6.62857 15.7776 6.51811 15.8536 6.39604 15.9058C6.27396 15.9581 6.14271 15.9854 6.00993 15.9864C5.87716 15.9874 5.74552 15.9619 5.6227 15.9114C5.49988 15.861 5.38834 15.7866 5.29458 15.6925C5.20082 15.5985 5.12673 15.4868 5.07662 15.3638C5.02652 15.2408 5.0014 15.1091 5.00274 14.9764C5.00407 14.8436 5.03184 14.7124 5.08441 14.5905C5.13699 14.4686 5.21332 14.3583 5.30895 14.2662L11.317 8.27521C11.5045 8.08774 11.7588 7.98242 12.024 7.98242C12.2891 7.98242 12.5434 8.08774 12.7309 8.27521L18.7229 14.2842C18.8625 14.4242 18.9574 14.6023 18.9957 14.7962C19.0341 14.9901 19.0141 15.191 18.9384 15.3735C18.8626 15.5561 18.7345 15.712 18.5701 15.8218C18.4058 15.9316 18.2126 15.9902 18.0149 15.9902L18.014 15.9912Z" fill="#21262A"/>
</svg>
