<svg width="24" height="24" viewBox="0 0 24 24" fill="none" xmlns="http://www.w3.org/2000/svg">
<path d="M15.0089 19.022C14.8773 19.022 14.7471 18.996 14.6256 18.9456C14.5041 18.8951 14.3938 18.8212 14.3009 18.728L8.30989 12.72C8.21691 12.6272 8.14315 12.5169 8.09283 12.3955C8.0425 12.2741 8.0166 12.144 8.0166 12.0125C8.0166 11.8811 8.0425 11.751 8.09283 11.6296C8.14315 11.5082 8.21691 11.3979 8.30989 11.305L14.3189 5.31404C14.5067 5.12653 14.7612 5.0213 15.0266 5.02148C15.292 5.02167 15.5464 5.12727 15.7339 5.31504C15.9214 5.50281 16.0266 5.75738 16.0264 6.02275C16.0263 6.28811 15.9207 6.54253 15.7329 6.73004L10.4329 12.015L15.7179 17.315C15.8574 17.455 15.9523 17.6332 15.9907 17.8271C16.029 18.0209 16.0091 18.2218 15.9333 18.4043C15.8575 18.5869 15.7294 18.7429 15.5651 18.8526C15.4007 18.9624 15.2075 19.021 15.0099 19.021L15.0089 19.022Z" fill="#21262A"/>
</svg>
