<svg width="24" height="24" viewBox="0 0 24 24" fill="none" xmlns="http://www.w3.org/2000/svg">
<path d="M9.00914 19.0129C8.81101 19.0134 8.61719 18.9551 8.45226 18.8453C8.28732 18.7356 8.15872 18.5793 8.08276 18.3963C8.0068 18.2133 7.98691 18.0119 8.02561 17.8176C8.06431 17.6232 8.15987 17.4448 8.30014 17.3049L13.6001 12.0199L8.31914 6.71989C8.22636 6.62691 8.1528 6.51657 8.10267 6.39517C8.05253 6.27376 8.0268 6.14367 8.02694 6.01233C8.02708 5.88098 8.05309 5.75094 8.10348 5.62965C8.15387 5.50835 8.22766 5.39817 8.32064 5.30539C8.41362 5.21261 8.52396 5.13905 8.64536 5.08891C8.76676 5.03878 8.89685 5.01304 9.0282 5.01318C9.15955 5.01332 9.28958 5.03933 9.41088 5.08973C9.53218 5.14012 9.64236 5.21391 9.73514 5.30689L15.7261 11.3159C15.9136 11.5034 16.0189 11.7577 16.0189 12.0229C16.0189 12.2881 15.9136 12.5424 15.7261 12.7299L9.71514 18.7209C9.62254 18.8137 9.51248 18.8873 9.39131 18.9374C9.27015 18.9875 9.14026 19.0132 9.00914 19.0129Z" fill="#21262A"/>
</svg>
