<svg width="24" height="24" viewBox="0 0 24 24" fill="none" xmlns="http://www.w3.org/2000/svg">
<path d="M20.5 9.95302C20.8978 9.95302 21.2794 9.79499 21.5607 9.51368C21.842 9.23238 22 8.85085 22 8.45302V6.27802C21.9998 5.98797 21.9156 5.70418 21.7575 5.46103C21.5993 5.21787 21.3741 5.02578 21.109 4.90802L12.61 1.13002C12.4181 1.0447 12.2105 1.00061 12.0005 1.00061C11.7905 1.00061 11.5829 1.0447 11.391 1.13002L2.891 4.90702C2.62577 5.02485 2.40042 5.2171 2.24227 5.46045C2.08412 5.7038 1.99996 5.9878 2 6.27802V8.45302C2 8.85085 2.15804 9.23238 2.43934 9.51368C2.72064 9.79499 3.10218 9.95302 3.5 9.95302H4V11.941C4 12.2062 4.10536 12.4606 4.29289 12.6481C4.48043 12.8357 4.73478 12.941 5 12.941C5.26522 12.941 5.51957 12.8357 5.70711 12.6481C5.89464 12.4606 6 12.2062 6 11.941V9.95302H14V16.953H12.377C12.1118 16.953 11.8574 17.0584 11.6699 17.2459C11.4824 17.4335 11.377 17.6878 11.377 17.953C11.377 18.2182 11.4824 18.4726 11.6699 18.6601C11.8574 18.8477 12.1118 18.953 12.377 18.953H20V19.953H4V17.088C4 16.9554 4.05268 16.8282 4.14645 16.7345C4.24021 16.6407 4.36739 16.588 4.5 16.588H7.585L7.292 16.881C7.19883 16.9739 7.12485 17.0842 7.0743 17.2056C7.02375 17.327 6.99762 17.4572 6.99738 17.5888C6.99715 17.7203 7.02283 17.8506 7.07295 17.9722C7.12307 18.0938 7.19666 18.2044 7.2895 18.2975C7.38234 18.3907 7.49263 18.4647 7.61406 18.5152C7.7355 18.5658 7.8657 18.5919 7.99723 18.5921C8.12877 18.5924 8.25906 18.5667 8.38067 18.5166C8.50228 18.4665 8.61283 18.3929 8.706 18.3L10.706 16.3C10.7985 16.2064 10.8718 16.0957 10.922 15.974C10.9976 15.7915 11.0174 15.5906 10.979 15.3968C10.9406 15.203 10.8456 15.0249 10.706 14.885L8.706 12.885C8.51836 12.6975 8.26392 12.5922 7.99865 12.5923C7.73338 12.5924 7.47901 12.6979 7.2915 12.8855C7.10399 13.0732 6.9987 13.3276 6.9988 13.5929C6.99889 13.8581 7.10436 14.1125 7.292 14.3L7.585 14.593H4.5C3.83696 14.593 3.20107 14.8564 2.73223 15.3253C2.26339 15.7941 2 16.43 2 17.093V20.458C2 20.8558 2.15804 21.2374 2.43934 21.5187C2.72064 21.8 3.10218 21.958 3.5 21.958H20.5C20.8978 21.958 21.2794 21.8 21.5607 21.5187C21.842 21.2374 22 20.8558 22 20.458V18.458C22 18.0602 21.842 17.6787 21.5607 17.3974C21.2794 17.1161 20.8978 16.958 20.5 16.958H20V9.95802L20.5 9.95302ZM4 6.60002L12 3.04402L20 6.60002V7.95002H4V6.60002ZM18 16.95H16V9.95002H18V16.95Z" fill="#21262A"/>
</svg>
