<svg width="24" height="24" viewBox="0 0 24 24" fill="none" xmlns="http://www.w3.org/2000/svg">
<path d="M16 10H18.5C18.6326 10 18.7598 9.94732 18.8536 9.85355C18.9473 9.75979 19 9.63261 19 9.5C19 9.36739 18.9473 9.24021 18.8536 9.14645C18.7598 9.05268 18.6326 9 18.5 9H17.5C16.837 9.0663 16.1748 8.8665 15.659 8.44454C15.1433 8.02259 14.8163 7.41304 14.75 6.75C14.6837 6.08696 14.8835 5.42474 15.3055 4.90901C15.7274 4.39328 16.337 4.0663 17 4C17 3.73478 17.1054 3.48043 17.2929 3.29289C17.4805 3.10536 17.7348 3 18 3C18.2652 3 18.5196 3.10536 18.7071 3.29289C18.8947 3.48043 19 3.73478 19 4H20C20.2652 4 20.5196 4.10536 20.7071 4.29289C20.8947 4.48043 21 4.73478 21 5C21 5.26522 20.8947 5.51957 20.7071 5.70711C20.5196 5.89464 20.2652 6 20 6H17.5C17.3674 6 17.2402 6.05268 17.1465 6.14645C17.0527 6.24021 17 6.36739 17 6.5C17 6.63261 17.0527 6.75979 17.1465 6.85355C17.2402 6.94732 17.3674 7 17.5 7H18.5C19.1631 6.9337 19.8253 7.1335 20.341 7.55546C20.8567 7.97741 21.1837 8.58696 21.25 9.25C21.3163 9.91304 21.1165 10.5753 20.6946 11.091C20.2726 11.6067 19.6631 11.9337 19 12C19 12.2652 18.8947 12.5196 18.7071 12.7071C18.5196 12.8946 18.2652 13 18 13C17.7348 13 17.4805 12.8946 17.2929 12.7071C17.1054 12.5196 17 12.2652 17 12H16C15.7348 12 15.4805 11.8946 15.2929 11.7071C15.1054 11.5196 15 11.2652 15 11C15 10.7348 15.1054 10.4804 15.2929 10.2929C15.4805 10.1054 15.7348 10 16 10Z" fill="#21262A"/>
<path fill-rule="evenodd" clip-rule="evenodd" d="M16.21 17H19C19.7956 17 20.5587 17.3161 21.1213 17.8787C21.6839 18.4413 22 19.2043 22 20V20.5C22 20.8978 21.842 21.2794 21.5607 21.5607C21.2794 21.842 20.8978 22 20.5 22H10.83C10.0346 21.9993 9.27207 21.6828 8.71 21.12L6.59 19H6C6 19.2652 5.89464 19.5196 5.70711 19.7071C5.51957 19.8946 5.26522 20 5 20H3C2.73478 20 2.48043 19.8946 2.29289 19.7071C2.10536 19.5196 2 19.2652 2 19C2 18.7348 2.10536 18.4804 2.29289 18.2929C2.48043 18.1054 2.73478 18 3 18H4V12H3C2.73478 12 2.48043 11.8946 2.29289 11.7071C2.10536 11.5196 2 11.2652 2 11C2 10.7348 2.10536 10.4804 2.29289 10.2929C2.48043 10.1054 2.73478 10 3 10H5C5.26522 10 5.51957 10.1054 5.70711 10.2929C5.89464 10.4804 6 10.7348 6 11H10.17C10.9654 11.0007 11.7279 11.3172 12.29 11.88L15.57 15.16C15.8077 15.3991 15.9887 15.6887 16.0995 16.0071C16.2102 16.3256 16.248 16.6649 16.21 17ZM10.12 19.71C10.3116 19.8927 10.5652 19.9963 10.83 20H20C20 19.7348 19.8946 19.4804 19.7071 19.2929C19.5196 19.1054 19.2652 19 19 19H13C12.8684 19.0008 12.7379 18.9755 12.6161 18.9258C12.4943 18.876 12.3834 18.8027 12.29 18.71L10.29 16.71C10.1017 16.5217 9.99591 16.2663 9.99591 16C9.99591 15.7337 10.1017 15.4783 10.29 15.29C10.4783 15.1017 10.7337 14.9959 11 14.9959C11.2663 14.9959 11.5217 15.1017 11.71 15.29L13.41 17H14.09L14.16 16.93C14.1842 16.9067 14.2034 16.8787 14.2166 16.8478C14.2297 16.8169 14.2365 16.7836 14.2365 16.75C14.2365 16.7164 14.2297 16.6831 14.2166 16.6522C14.2034 16.6213 14.1842 16.5933 14.16 16.57L10.88 13.29C10.6884 13.1073 10.4348 13.0037 10.17 13H6V17H7C7.13161 16.9992 7.26207 17.0245 7.38391 17.0742C7.50574 17.124 7.61656 17.1973 7.71 17.29L10.12 19.71Z" fill="#21262A"/>
</svg>
