<svg width="24" height="24" viewBox="0 0 24 24" fill="none" xmlns="http://www.w3.org/2000/svg">
<path d="M21.1099 9.87967L20.2999 9.05967C20.2042 8.96588 20.1284 8.85381 20.0768 8.73013C20.0253 8.60644 19.9991 8.47366 19.9999 8.33967V6.99967C19.9999 6.20402 19.6839 5.44096 19.1212 4.87835C18.5586 4.31574 17.7956 3.99967 16.9999 3.99967H15.6599C15.5288 4.00127 15.3987 3.9754 15.2782 3.92374C15.1576 3.87207 15.0492 3.79574 14.9599 3.69967L14.1299 2.86967C13.8512 2.58999 13.52 2.36808 13.1554 2.21666C12.7907 2.06525 12.3998 1.9873 12.0049 1.9873C11.6101 1.9873 11.2191 2.06525 10.8545 2.21666C10.4898 2.36808 10.1586 2.58999 9.87992 2.86967L9.04992 3.69967C8.95731 3.79416 8.84686 3.86933 8.72499 3.92083C8.60311 3.97232 8.47223 3.99912 8.33992 3.99967H6.99992C6.20427 3.99967 5.44121 4.31574 4.8786 4.87835C4.31599 5.44096 3.99992 6.20402 3.99992 6.99967V8.33967C3.99808 8.47269 3.9697 8.604 3.91647 8.72591C3.86324 8.84783 3.78622 8.95789 3.68992 9.04967L2.87992 9.87967C2.60024 10.1584 2.37833 10.4896 2.22692 10.8542C2.0755 11.2189 1.99756 11.6098 1.99756 12.0047C1.99756 12.3995 2.0755 12.7905 2.22692 13.1551C2.37833 13.5198 2.60024 13.851 2.87992 14.1297L3.70992 14.9597C3.89467 15.1459 3.99882 15.3973 3.99992 15.6597V16.9997C3.99992 17.7953 4.31599 18.5584 4.8786 19.121C5.44121 19.6836 6.20427 19.9997 6.99992 19.9997H8.33992C8.47108 19.9981 8.60111 20.0239 8.72167 20.0756C8.84222 20.1273 8.95063 20.2036 9.03992 20.2997L9.86992 21.1297C10.1486 21.4093 10.4798 21.6313 10.8445 21.7827C11.2091 21.9341 11.6001 22.012 11.9949 22.012C12.3898 22.012 12.7807 21.9341 13.1454 21.7827C13.51 21.6313 13.8412 21.4093 14.1199 21.1297L14.9999 20.2997C15.0892 20.2036 15.1976 20.1273 15.3182 20.0756C15.4387 20.0239 15.5688 19.9981 15.6999 19.9997H16.9999C17.7956 19.9997 18.5586 19.6836 19.1212 19.121C19.6839 18.5584 19.9999 17.7953 19.9999 16.9997V15.6597C19.9983 15.5285 20.0242 15.3985 20.0759 15.2779C20.1275 15.1574 20.2038 15.049 20.2999 14.9597L21.1299 14.1197C21.6891 13.5545 22.001 12.7905 21.9973 11.9955C21.9935 11.2005 21.6744 10.4395 21.1099 9.87967ZM19.7099 12.7097L18.8899 13.5297C18.6083 13.8083 18.3846 14.1401 18.2318 14.5056C18.0791 14.8712 18.0003 15.2635 17.9999 15.6597V16.9997C17.9999 17.2649 17.8946 17.5192 17.707 17.7068C17.5195 17.8943 17.2651 17.9997 16.9999 17.9997H15.6499C14.8545 18.0004 14.092 18.3169 13.5299 18.8797L12.6999 19.7097C12.5126 19.8959 12.2591 20.0005 11.9949 20.0005C11.7307 20.0005 11.4773 19.8959 11.2899 19.7097L10.4699 18.8897C10.1913 18.608 9.85954 18.3843 9.49396 18.2316C9.12837 18.0788 8.73614 18 8.33992 17.9997H6.99992C6.73471 17.9997 6.48035 17.8943 6.29282 17.7068C6.10528 17.5192 5.99992 17.2649 5.99992 16.9997V15.6597C6.00188 14.8657 5.68903 14.1034 5.12992 13.5397L4.29992 12.7097C4.2062 12.6167 4.1318 12.5061 4.08103 12.3842C4.03026 12.2624 4.00413 12.1317 4.00413 11.9997C4.00413 11.8677 4.03026 11.737 4.08103 11.6151C4.1318 11.4932 4.2062 11.3826 4.29992 11.2897L5.09992 10.4697C5.38339 10.1918 5.6089 9.86049 5.76339 9.49487C5.91788 9.12924 5.99828 8.73659 5.99992 8.33967V6.99967C5.99992 6.73445 6.10528 6.4801 6.29282 6.29256C6.48035 6.10503 6.73471 5.99967 6.99992 5.99967H8.33992C8.73544 6.00064 9.12725 5.92339 9.4928 5.77236C9.85835 5.62134 10.1904 5.39952 10.4699 5.11967L11.2999 4.28967C11.4873 4.10342 11.7407 3.99888 12.0049 3.99888C12.2691 3.99888 12.5226 4.10342 12.7099 4.28967L13.5299 5.10967C13.8086 5.39133 14.1403 5.61499 14.5059 5.76775C14.8715 5.9205 15.2637 5.99933 15.6599 5.99967H16.9999C17.2651 5.99967 17.5195 6.10503 17.707 6.29256C17.8946 6.4801 17.9999 6.73445 17.9999 6.99967V8.33967C18.0018 9.13581 18.3139 9.89988 18.8699 10.4697L19.6999 11.2997C19.8862 11.487 19.9907 11.7405 19.9907 12.0047C19.9907 12.2689 19.8862 12.5223 19.6999 12.7097H19.7099Z" fill="#21262A"/>
<path d="M15.0001 8.73955C13.2841 9.83115 11.7854 11.2315 10.5801 12.8696L9.42008 11.7696C9.22647 11.5866 8.96809 11.488 8.70179 11.4955C8.43549 11.503 8.18308 11.6159 8.00008 11.8096C7.81708 12.0032 7.71848 12.2615 7.72598 12.5278C7.73349 12.7941 7.84647 13.0466 8.04008 13.2296L10.0401 15.1096C10.227 15.2846 10.474 15.3812 10.7301 15.3796H10.8401C10.9841 15.3643 11.123 15.3179 11.2473 15.2437C11.3716 15.1694 11.4784 15.0691 11.5601 14.9496C12.7391 13.1936 14.2468 11.6825 16.0001 10.4996C16.2335 10.3669 16.4046 10.1471 16.4759 9.88825C16.5471 9.62945 16.5127 9.35294 16.3801 9.11955C16.2475 8.88616 16.0276 8.71501 15.7688 8.64374C15.51 8.57248 15.2335 8.60694 15.0001 8.73955Z" fill="#21262A"/>
</svg>
