<svg width="24" height="24" viewBox="0 0 24 24" fill="none" xmlns="http://www.w3.org/2000/svg">
<path fill-rule="evenodd" clip-rule="evenodd" d="M14.239 3.585L21.113 10.459C21.6751 11.0215 21.9909 11.7843 21.9909 12.5795C21.9909 13.3748 21.6751 14.1375 21.113 14.7L14.701 21.113C14.4224 21.3916 14.0917 21.6127 13.7277 21.7635C13.3637 21.9142 12.9735 21.9919 12.5795 21.9919C12.1855 21.9919 11.7953 21.9142 11.4313 21.7635C11.0673 21.6127 10.7366 21.3916 10.458 21.113L3.586 14.24C3.21192 13.8643 3.00131 13.3562 3 12.826V5C3 4.46957 3.21071 3.96086 3.58579 3.58579C3.96086 3.21072 4.46957 3 5 3H12.826C13.0885 2.99946 13.3485 3.05087 13.591 3.15127C13.8335 3.25168 14.0537 3.39909 14.239 3.585ZM13.287 19.7L19.7 13.287C19.8875 13.0995 19.9928 12.8452 19.9928 12.58C19.9928 12.3148 19.8875 12.0605 19.7 11.873L12.826 5H5V12.826L11.873 19.7C12.0631 19.8825 12.3165 19.9844 12.58 19.9844C12.8435 19.9844 13.0969 19.8825 13.287 19.7ZM7.2827 7.2776L7.31735 7.24295C7.6942 6.8661 8.30521 6.8661 8.68206 7.24295L8.71671 7.2776C9.09357 7.65446 9.09357 8.26546 8.71671 8.64232L8.68206 8.67697C8.30521 9.05382 7.6942 9.05382 7.31735 8.67697L7.2827 8.64232C6.90584 8.26546 6.90584 7.65446 7.2827 7.2776Z" fill="#21262A"/>
</svg>
