<svg width="24" height="24" viewBox="0 0 24 24" fill="none" xmlns="http://www.w3.org/2000/svg">
<path d="M19 9.0004H15.31L15.59 7.3804C15.74 6.53316 15.6128 5.66015 15.2273 4.89093C14.8418 4.12172 14.2185 3.49732 13.45 3.1104C13.2483 3.00795 13.0179 2.9769 12.7963 3.02231C12.5748 3.06771 12.3751 3.1869 12.23 3.3604L7.53 9.0004H3C2.73478 9.0004 2.48043 9.10576 2.29289 9.29329C2.10536 9.48083 2 9.73518 2 10.0004V20.0004C2 20.2656 2.10536 20.52 2.29289 20.7075C2.48043 20.895 2.73478 21.0004 3 21.0004H16.68C17.2677 21.0008 17.8427 20.8285 18.3333 20.5049C18.824 20.1813 19.2088 19.7208 19.44 19.1804L21.72 13.8604C21.9075 13.4282 22.0029 12.9616 22 12.4904V12.0004C22 11.2047 21.6839 10.4417 21.1213 9.87909C20.5587 9.31647 19.7956 9.0004 19 9.0004ZM7 19.0004H4V11.0004H7V19.0004ZM20 12.4904C19.9997 12.6931 19.9589 12.8937 19.88 13.0804L17.6 18.3904C17.5234 18.5711 17.3954 18.7254 17.2318 18.8338C17.0682 18.9423 16.8763 19.0002 16.68 19.0004H9V10.3604L13.16 5.3604C13.3544 5.58219 13.4974 5.84424 13.5786 6.12777C13.6599 6.4113 13.6774 6.70929 13.63 7.0004L13.13 9.80041C13.105 9.94522 13.1122 10.0937 13.1512 10.2354C13.1901 10.3771 13.2598 10.5085 13.3553 10.6202C13.4507 10.7319 13.5697 10.8212 13.7036 10.8817C13.8375 10.9423 13.9831 10.9725 14.13 10.9704H19C19.2652 10.9704 19.5196 11.0758 19.7071 11.2633C19.8946 11.4508 20 11.7052 20 11.9704V12.4904Z" fill="#21262A"/>
</svg>
