<svg preserveAspectRatio="none" width="100%" height="100%" overflow="visible" style="display: block;" viewBox="0 0 20.0227 20.0235" fill="none" xmlns="http://www.w3.org/2000/svg">
<g id="icon">
<path id="Vector" d="M10.0114 20.0235C15.5409 20.0235 20.0227 15.541 20.0227 10.0117C20.0227 4.48239 15.5409 0 10.0114 0C4.48182 0 0 4.48239 0 10.0117C0 15.541 4.48182 20.0235 10.0114 20.0235Z" fill="var(--fill-0, #FFE01B)"/>
<path id="Vector_2" d="M13.3612 9.38495C13.4635 9.37234 13.5612 9.37234 13.6521 9.38495C13.7044 9.26484 13.7135 9.05713 13.6657 8.83154C13.5953 8.49577 13.4999 8.2927 13.3067 8.32456C13.109 8.3564 13.1021 8.59929 13.1726 8.93504C13.2112 9.12349 13.2817 9.2854 13.3612 9.38495Z" fill="var(--fill-0, black)"/>
<path id="Vector_3" d="M11.6775 9.65058C11.8184 9.71228 11.9048 9.75276 11.9389 9.7176C11.9593 9.69503 11.9525 9.65321 11.9184 9.59815C11.8502 9.48535 11.707 9.37053 11.557 9.30617C11.2479 9.17346 10.8775 9.21726 10.5956 9.42165C10.5025 9.49065 10.4116 9.58555 10.4252 9.64328C10.4275 9.66185 10.4434 9.67578 10.4775 9.68042C10.5547 9.68905 10.823 9.55237 11.1343 9.53378C11.3548 9.52051 11.5366 9.58885 11.6775 9.65058Z" fill="var(--fill-0, black)"/>
<path id="Vector_4" d="M11.3957 9.81065C11.2116 9.83917 11.1116 9.89956 11.0456 9.95597C10.9911 10.0044 10.957 10.0575 10.957 10.0953C10.957 10.1132 10.9661 10.1232 10.9707 10.1285C10.9798 10.1358 10.9911 10.1398 11.0002 10.1398C11.0434 10.1398 11.1343 10.1026 11.1343 10.1026C11.3889 10.0117 11.5571 10.0223 11.723 10.0416C11.8139 10.0522 11.8593 10.0575 11.8798 10.0263C11.8843 10.017 11.8911 9.99776 11.873 9.9679C11.8298 9.89824 11.6457 9.78144 11.3934 9.81131L11.3957 9.81065Z" fill="var(--fill-0, black)"/>
<path id="Vector_5" d="M12.7914 10.4016C12.9164 10.4627 13.0527 10.4388 13.0982 10.3479C13.1414 10.2576 13.0778 10.1349 12.9528 10.0738C12.8278 10.0128 12.6914 10.0367 12.6482 10.1276C12.6027 10.2178 12.6687 10.3406 12.7914 10.4016Z" fill="var(--fill-0, black)"/>
<path id="Vector_6" d="M13.5888 9.7051C13.4888 9.7031 13.4047 9.81392 13.4024 9.95195C13.4001 10.09 13.4797 10.2034 13.582 10.2054C13.682 10.2074 13.7661 10.0966 13.7683 9.95858C13.7706 9.82056 13.6911 9.70708 13.5888 9.7051Z" fill="var(--fill-0, black)"/>
<path id="Vector_7" d="M6.82029 12.1971C6.79529 12.1659 6.75213 12.1752 6.71349 12.1845C6.68622 12.1911 6.65436 12.1984 6.62026 12.1977C6.54526 12.1964 6.4839 12.1646 6.44754 12.1108C6.40208 12.0405 6.40436 11.935 6.45663 11.8149C6.46117 11.7989 6.47029 11.7804 6.47938 11.7611C6.5612 11.58 6.69531 11.276 6.54304 10.9874C6.4294 10.7697 6.24301 10.6344 6.01801 10.6059C5.80438 10.5786 5.58165 10.6583 5.44074 10.8142C5.21801 11.0604 5.18165 11.3948 5.2271 11.5129C5.24074 11.5561 5.26574 11.568 5.28392 11.5707C5.32029 11.576 5.3794 11.5481 5.41349 11.4539C5.41576 11.4472 5.42026 11.4366 5.42481 11.4234C5.43845 11.3736 5.46801 11.28 5.51574 11.2057C5.57256 11.1155 5.66345 11.0537 5.76799 11.0312C5.87481 11.008 5.9862 11.0285 6.07711 11.0889C6.23392 11.1911 6.29299 11.3822 6.22708 11.5654C6.19072 11.6596 6.13622 11.8401 6.14758 11.9887C6.17258 12.2893 6.35665 12.4094 6.52483 12.4227C6.68392 12.4287 6.79758 12.3384 6.82713 12.2721C6.84304 12.2329 6.82938 12.209 6.82029 12.1991V12.1971Z" fill="var(--fill-0, black)"/>
<path id="Vector_8" d="M16.132 11.6482C16.1252 11.6263 16.0866 11.4803 16.032 11.3038C15.9775 11.1273 15.9184 11.0032 15.9184 11.0032C16.1411 10.6734 16.1434 10.3781 16.1138 10.2109C16.082 10.0038 15.9979 9.82666 15.8229 9.64419C15.6502 9.46171 15.2934 9.27457 14.7934 9.13457C14.7366 9.11864 14.5479 9.06687 14.532 9.06157C14.5297 9.05096 14.5184 8.44312 14.507 8.18235C14.4979 7.99389 14.482 7.69926 14.3911 7.40928C14.282 7.01712 14.0911 6.67337 13.857 6.45373C14.5093 5.77689 14.9161 5.03103 14.9161 4.39069C14.9138 3.16044 13.4025 2.78816 11.5411 3.55923C11.5388 3.55989 11.1479 3.72512 11.1457 3.72646C11.1434 3.72448 10.432 3.02639 10.4229 3.0171C8.29788 1.1664 1.65926 8.5453 3.78199 10.3376L4.24563 10.7305C4.12518 11.0423 4.07743 11.3993 4.11606 11.7835C4.16606 12.2766 4.42065 12.7497 4.83429 13.1147C5.2252 13.4617 5.74109 13.6807 6.23881 13.6807C7.06381 15.5838 8.95243 16.7516 11.1638 16.8173C13.5388 16.8878 15.532 15.7743 16.3661 13.7736C16.4207 13.6329 16.6525 13.0005 16.6525 12.4418C16.6525 11.8831 16.3343 11.6482 16.132 11.6482ZM6.42066 13.1465C6.34793 13.1591 6.2752 13.1638 6.2002 13.1618C5.48429 13.1425 4.70927 12.4969 4.63427 11.7318C4.5479 10.8857 4.97975 10.2348 5.74565 10.0801C5.83884 10.0616 5.9479 10.051 6.06609 10.0569C6.49563 10.0801 7.12747 10.4099 7.27066 11.3436C7.4002 12.1711 7.19793 13.0131 6.42293 13.1458L6.42066 13.1465ZM5.62063 9.5745C5.14336 9.66741 4.7229 9.93748 4.46609 10.3104C4.31381 10.1823 4.02747 9.93482 3.97747 9.83794C3.56838 9.05957 4.42515 7.54596 5.02288 6.6913C6.5047 4.57782 8.82293 2.97928 9.89566 3.26926C10.0707 3.31835 10.6479 3.98857 10.6479 3.98857C10.6479 3.98857 9.5752 4.5838 8.57975 5.41326C7.23884 6.44512 6.22745 7.94546 5.62063 9.57319V9.5745ZM13.1457 12.8307C13.1593 12.824 13.1729 12.8061 13.1684 12.7888C13.1684 12.767 13.1479 12.751 13.1275 12.7537C13.1275 12.7537 12.0025 12.9202 10.9411 12.5314C11.0593 12.1558 11.3661 12.2912 11.8297 12.329C12.6684 12.3788 13.4161 12.2567 13.9729 12.0974C14.4525 11.9594 15.0843 11.6873 15.5729 11.3011C15.7388 11.6641 15.7979 12.0642 15.7979 12.0642C15.7979 12.0642 15.9252 12.041 16.032 12.1074C16.132 12.1697 16.207 12.2991 16.157 12.6329C16.0548 13.2573 15.7888 13.7643 15.3411 14.2301C15.0707 14.5221 14.7411 14.7769 14.3638 14.9613C14.1638 15.0669 13.9502 15.1578 13.7252 15.2314C12.0434 15.781 10.3229 15.1771 9.76609 13.8804C9.72063 13.7829 9.68654 13.6807 9.65472 13.5738C9.41836 12.7192 9.61841 11.694 10.248 11.049C10.2843 11.0078 10.3252 10.9594 10.3252 10.8983C10.3252 10.8473 10.2934 10.7935 10.2638 10.7557C10.0456 10.4371 9.28429 9.89435 9.43884 8.84457C9.54793 8.0901 10.207 7.5586 10.8229 7.59044C10.8752 7.5931 10.9252 7.59641 10.9797 7.59905C11.2457 7.61498 11.4775 7.64882 11.6956 7.65812C12.0638 7.67405 12.3934 7.6203 12.7866 7.29448C12.9184 7.18432 13.0252 7.08944 13.2025 7.05891C13.223 7.0556 13.2684 7.03901 13.3616 7.04364C13.457 7.04896 13.5479 7.07485 13.6297 7.12926C13.9434 7.33762 13.9865 7.84325 14.0047 8.21287C14.0138 8.42387 14.0388 8.93482 14.0479 9.0808C14.0684 9.41591 14.1547 9.46303 14.3343 9.52207C14.4343 9.55525 14.5275 9.57982 14.6638 9.6183C15.0798 9.7351 15.3252 9.85321 15.4797 10.0052C15.5729 10.1001 15.6161 10.2009 15.6298 10.2971C15.6775 10.6541 15.3525 11.0954 14.4888 11.4962C13.5457 11.9342 12.4002 12.045 11.607 11.9574C11.5479 11.9508 11.3297 11.9262 11.3297 11.9262C10.6979 11.8413 10.3365 12.6588 10.7184 13.2195C10.9615 13.5805 11.6274 13.8154 12.2956 13.816C13.8252 13.816 15.0002 13.1631 15.4388 12.5991C15.4525 12.5825 15.4525 12.5805 15.4729 12.5493C15.4934 12.5168 15.4775 12.4989 15.4502 12.5174C15.0934 12.7616 13.5047 13.7324 11.8093 13.4405C11.8093 13.4405 11.6025 13.4066 11.4138 13.333C11.2638 13.2746 10.9502 13.1306 10.9116 12.8094C12.2843 13.2334 13.1457 12.8326 13.1457 12.8326V12.8307ZM8.35475 6.682C8.88202 6.07416 9.52745 5.5453 10.1093 5.24869C10.1297 5.23873 10.1502 5.25996 10.1411 5.27987C10.0933 5.36348 10.0047 5.54198 9.97745 5.67735C9.97291 5.6986 9.99566 5.71453 10.0116 5.70191C10.3729 5.45571 11.0002 5.19228 11.5525 5.15844C11.5775 5.15712 11.5865 5.18764 11.5684 5.20157C11.4865 5.26594 11.3957 5.35487 11.3275 5.44446C11.3161 5.45971 11.3252 5.4816 11.3456 5.4816C11.732 5.48426 12.2798 5.61962 12.6343 5.81937C12.657 5.83264 12.6388 5.87976 12.6138 5.87312C12.0752 5.74969 11.1956 5.65612 10.2797 5.87907C9.46382 6.07816 8.84109 6.38539 8.38654 6.7165C8.36382 6.7331 8.33657 6.70257 8.35475 6.68135V6.682Z" fill="var(--fill-0, black)"/>
</g>
</svg>
