<svg preserveAspectRatio="none" width="100%" height="100%" overflow="visible" style="display: block;" viewBox="0 0 85.7276 18.9485" fill="none" xmlns="http://www.w3.org/2000/svg">
<g id="text">
<path id="Vector" d="M14.1523 8.70779V14.405H11.8841V9.34783C11.8841 8.26529 11.6386 6.91406 10.1841 6.91406C8.73182 6.91406 8.18637 8.24949 8.18637 9.42685V14.405H5.92727V8.89742C5.92727 7.77538 5.39546 6.92197 4.24318 6.92197C2.88409 6.92197 2.25909 8.17838 2.25909 9.38735V14.3973H0V5.28626H2.15V6.74813H2.17955C2.575 5.8631 3.53864 5.02551 4.99318 5.02551C6.44773 5.02551 7.31591 5.72876 7.82955 6.74813C8.43864 5.64976 9.45 5.02551 10.8091 5.02551C13.1636 5.02551 14.1523 6.84294 14.1523 8.70779Z" fill="var(--fill-0, black)"/>
<path id="Vector_2" d="M22.0299 13.2357H21.9663C21.5163 14.0337 20.4412 14.6184 19.1526 14.6184C17.7003 14.6184 15.7549 13.9152 15.7549 11.7896C15.7549 9.07136 19.1526 8.69995 21.9822 8.69995V8.47081C21.9822 7.34874 21.0344 6.79561 19.9049 6.79561C18.939 6.79561 18.0162 7.24599 17.439 7.83865L16.2685 6.45583C17.289 5.50758 18.7185 5.00977 20.1026 5.00977C23.3481 5.00977 24.139 7.02477 24.139 8.84217V14.3814H22.0299V13.2198H22.039L22.0299 13.2357ZM21.9981 10.2487H21.4844C20.0458 10.2487 18.0322 10.4226 18.0322 11.7658C18.0322 12.6351 18.8458 12.9037 19.6208 12.9037C21.1685 12.9037 21.9981 12.0187 21.9981 10.5727V10.2487Z" fill="var(--fill-0, black)"/>
<path id="Vector_3" d="M26.4229 5.28625H28.6817V14.397H26.4229V5.28625Z" fill="var(--fill-0, black)"/>
<path id="Vector_4" d="M27.5996 3.8088C28.3587 3.8088 28.9837 3.18455 28.9837 2.41807C28.9837 1.65159 28.3655 1.02734 27.5996 1.02734C26.8337 1.02734 26.2178 1.65159 26.2178 2.41807C26.2178 3.18455 26.8337 3.8088 27.5996 3.8088Z" fill="var(--fill-0, black)"/>
<path id="Vector_5" d="M56.1116 3.85567C56.8707 3.85567 57.4934 3.23145 57.4934 2.46495C57.4934 1.69847 56.8775 1.07422 56.1116 1.07422C55.3434 1.07422 54.7275 1.69847 54.7275 2.46495C54.7275 3.23145 55.3434 3.85567 56.1116 3.85567Z" fill="var(--fill-0, black)"/>
<path id="Vector_6" d="M30.9502 0H33.2184V14.3498H30.9502V0Z" fill="var(--fill-0, black)"/>
<path id="Vector_7" d="M41.736 7.80685C41.3815 7.29323 40.5974 6.92185 39.8633 6.92185C38.2042 6.92185 37.3678 8.42319 37.3678 9.84553C37.3678 11.2679 38.2133 12.7692 39.9269 12.7692C40.6315 12.7692 41.3974 12.4848 41.8315 11.9474L43.2451 13.3935C42.4951 14.2153 41.2474 14.6658 39.9042 14.6658C37.2246 14.6658 34.9883 12.8798 34.9883 9.84553C34.9883 6.81121 37.1769 5.02539 39.8406 5.02539C41.1678 5.02539 42.5428 5.55482 43.2542 6.44773L41.7042 7.81475L41.7292 7.79894L41.736 7.80685Z" fill="var(--fill-0, black)"/>
<path id="Vector_8" d="M52.7615 14.4056H50.4933V9.39576C50.4933 8.31322 50.264 6.98569 48.8094 6.98569C47.3549 6.98569 46.6774 8.22628 46.6774 9.43528V14.4133H44.416V0.0478516H46.6774V6.55899H46.7072C47.0617 5.80042 48.066 5.01812 49.4092 5.01812C51.7637 5.01812 52.7524 6.83556 52.7524 8.7004V14.4056H52.7615Z" fill="var(--fill-0, black)"/>
<path id="Vector_9" d="M54.9795 5.28613H57.2409V14.3969H54.9795V5.28613Z" fill="var(--fill-0, black)"/>
<path id="Vector_10" d="M73.6933 8.70779V14.405H71.4251V9.34783C71.4251 8.26529 71.1797 6.91406 69.7251 6.91406C68.2728 6.91406 67.7274 8.24949 67.7274 9.42685V14.405H65.466V8.89742C65.466 7.77538 64.9365 6.92197 63.7819 6.92197C62.4251 6.92197 61.8001 8.17838 61.8001 9.38735V14.3973H59.541V5.28626H61.6887V6.74813H61.7206C62.116 5.8631 63.0797 5.02551 64.5342 5.02551C65.9887 5.02551 66.8569 5.72876 67.3706 6.74813C67.9797 5.64976 68.9978 5.02551 70.3501 5.02551C72.7047 5.02551 73.6933 6.84294 73.6933 8.70779Z" fill="var(--fill-0, black)"/>
<path id="Vector_11" d="M78.1253 5.28624V6.55844H78.1889C78.6389 5.83937 79.6594 5.01758 81.3253 5.01758C83.9162 5.01758 85.7276 7.11158 85.7276 9.79824C85.7276 12.4849 84.0276 14.6578 81.2798 14.6578C80.0139 14.6578 78.8594 14.0889 78.2844 13.1803H78.2526V18.9485H75.9844V5.28624H78.1412H78.1253ZM80.8048 6.88242C79.1366 6.88242 78.1412 8.42328 78.1412 9.84565C78.1412 11.268 79.1457 12.7694 80.8048 12.7694C82.5662 12.7694 83.4117 11.2364 83.4117 9.80612C83.4117 8.37587 82.5662 6.88242 80.8048 6.88242Z" fill="var(--fill-0, black)"/>
</g>
</svg>
