<svg preserveAspectRatio="none" width="100%" height="100%" overflow="visible" style="display: block;" viewBox="0 0 16.0182 16.0188" fill="none" xmlns="http://www.w3.org/2000/svg">
<g id="icon">
<path id="Vector" d="M8.00909 16.0188C12.4328 16.0188 16.0182 12.4328 16.0182 8.00935C16.0182 3.58591 12.4328 0 8.00909 0C3.58546 0 0 3.58591 0 8.00935C0 12.4328 3.58546 16.0188 8.00909 16.0188Z" fill="var(--fill-0, #FFE01B)"/>
<path id="Vector_2" d="M10.6894 7.50718C10.7712 7.49709 10.8494 7.49709 10.9221 7.50718C10.9639 7.41109 10.9712 7.24492 10.933 7.06445C10.8766 6.79583 10.8003 6.63338 10.6457 6.65887C10.4876 6.68434 10.4821 6.87865 10.5385 7.14725C10.5694 7.29801 10.6257 7.42754 10.6894 7.50718Z" fill="var(--fill-0, black)"/>
<path id="Vector_3" d="M9.34178 7.71988C9.4545 7.76924 9.52363 7.80162 9.5509 7.77349C9.56727 7.75544 9.5618 7.72198 9.53452 7.67793C9.47998 7.58769 9.36541 7.49584 9.24541 7.44435C8.99814 7.33819 8.70178 7.37322 8.47632 7.53673C8.40178 7.59193 8.32905 7.66786 8.33996 7.71404C8.34178 7.72889 8.3545 7.74004 8.38178 7.74375C8.44359 7.75066 8.65818 7.64131 8.90727 7.62644C9.08363 7.61582 9.22905 7.67049 9.34178 7.71988Z" fill="var(--fill-0, black)"/>
<path id="Vector_4" d="M9.11653 7.84901C8.96926 7.87183 8.88924 7.92013 8.83652 7.96526C8.79288 8.00401 8.76562 8.04648 8.76562 8.07674C8.76562 8.09106 8.77292 8.09903 8.77655 8.10328C8.78383 8.10912 8.7929 8.11232 8.80017 8.11232C8.83472 8.11232 8.90746 8.08257 8.90746 8.08257C9.1111 8.00984 9.24566 8.01833 9.37839 8.03373C9.45112 8.04223 9.48746 8.04648 9.50383 8.02152C9.50746 8.0141 9.51292 7.9987 9.49837 7.97481C9.46383 7.91908 9.31653 7.82564 9.11472 7.84953L9.11653 7.84901Z" fill="var(--fill-0, black)"/>
<path id="Vector_5" d="M10.233 8.32139C10.333 8.37022 10.4421 8.35111 10.4785 8.27839C10.513 8.20619 10.4621 8.10797 10.3621 8.05915C10.2621 8.0103 10.153 8.0294 10.1185 8.10213C10.0821 8.17435 10.1348 8.27255 10.233 8.32139Z" fill="var(--fill-0, black)"/>
<path id="Vector_6" d="M10.8708 7.76369C10.7908 7.76209 10.7235 7.85075 10.7217 7.96117C10.7199 8.07158 10.7836 8.16237 10.8654 8.16395C10.9454 8.16555 11.0126 8.07689 11.0145 7.96647C11.0163 7.85606 10.9526 7.76528 10.8708 7.76369Z" fill="var(--fill-0, black)"/>
<path id="Vector_7" d="M5.45672 9.75754C5.43672 9.7326 5.40219 9.74002 5.37128 9.74745C5.34946 9.75276 5.32397 9.75862 5.2967 9.75807C5.2367 9.75702 5.18761 9.73152 5.15852 9.68852C5.12215 9.63227 5.12397 9.54785 5.16579 9.45178C5.16943 9.43903 5.17672 9.42416 5.18399 9.40876C5.24945 9.26385 5.35674 9.02071 5.23492 8.78978C5.14401 8.61567 4.9949 8.50738 4.8149 8.48456C4.64399 8.46278 4.46581 8.52649 4.35308 8.65123C4.1749 8.84818 4.14581 9.11574 4.18217 9.21023C4.19308 9.24472 4.21308 9.25429 4.22763 9.25642C4.25672 9.26065 4.30401 9.23836 4.33128 9.16298C4.3331 9.15767 4.3367 9.14918 4.34034 9.13856C4.35125 9.09874 4.3749 9.02389 4.41308 8.96443C4.45854 8.89225 4.53125 8.84287 4.61488 8.82482C4.70034 8.80625 4.78945 8.82271 4.86217 8.87102C4.98763 8.95276 5.03488 9.10565 4.98215 9.25216C4.95306 9.32754 4.90946 9.47194 4.91855 9.59085C4.93855 9.83134 5.08581 9.92742 5.22035 9.93803C5.34763 9.94282 5.43855 9.87062 5.46219 9.81752C5.47492 9.78622 5.46399 9.76711 5.45672 9.75912V9.75754Z" fill="var(--fill-0, black)"/>
<path id="Vector_8" d="M12.906 9.31892C12.9005 9.30141 12.8696 9.18461 12.826 9.04341C12.7824 8.90219 12.7351 8.80294 12.7351 8.80294C12.9133 8.53909 12.9151 8.30287 12.8914 8.16909C12.866 8.00347 12.7987 7.86172 12.6587 7.71574C12.5205 7.56976 12.2351 7.42005 11.8351 7.30805C11.7897 7.2953 11.6387 7.25389 11.626 7.24965C11.6242 7.24116 11.6151 6.75489 11.606 6.54627C11.5987 6.3955 11.586 6.1598 11.5133 5.92781C11.426 5.61409 11.2733 5.33909 11.086 5.16338C11.6078 4.6219 11.9332 4.02521 11.9332 3.51294C11.9314 2.52874 10.7224 2.23092 9.23328 2.84778C9.23146 2.8483 8.91874 2.98049 8.91692 2.98156C8.9151 2.97998 8.34597 2.4215 8.3387 2.41407C6.6387 0.933508 1.3278 6.83663 3.02599 8.27049L3.3969 8.58476C3.30053 8.83425 3.26233 9.11987 3.29324 9.42721C3.33324 9.82165 3.53691 10.2001 3.86782 10.4921C4.18055 10.7698 4.59326 10.9449 4.99144 10.9449C5.65144 12.4674 7.16233 13.4017 8.93143 13.4542C10.8314 13.5106 12.426 12.6198 13.0933 11.0192C13.1369 10.9067 13.3224 10.4008 13.3224 9.95383C13.3224 9.50685 13.0678 9.31892 12.906 9.31892ZM5.13691 10.5176C5.07873 10.5277 5.02055 10.5314 4.96055 10.5298C4.38782 10.5144 3.76781 9.99789 3.70781 9.38581C3.63871 8.70896 3.98419 8.18819 4.59691 8.0645C4.67146 8.04965 4.75871 8.04116 4.85326 8.04594C5.1969 8.0645 5.70237 8.32834 5.81692 9.07525C5.92055 9.73725 5.75873 10.4109 5.13873 10.5171L5.13691 10.5176ZM4.4969 7.65999C4.11508 7.73432 3.77871 7.95038 3.57326 8.24872C3.45144 8.14627 3.22237 7.94825 3.18237 7.87074C2.8551 7.24805 3.54051 6.03716 4.0187 5.35343C5.20415 3.66265 7.05873 2.38381 7.91692 2.61579C8.05692 2.65507 8.5187 3.19125 8.5187 3.19125C8.5187 3.19125 7.66055 3.66743 6.86419 4.33099C5.79146 5.15649 4.98235 6.35676 4.4969 7.65894V7.65999ZM10.5169 10.2649C10.5278 10.2596 10.5387 10.2453 10.5351 10.2315C10.5351 10.214 10.5187 10.2012 10.5024 10.2033C10.5024 10.2033 9.60235 10.3366 8.75326 10.0255C8.84781 9.72503 9.09328 9.83332 9.46419 9.86359C10.1351 9.90339 10.7333 9.80572 11.1787 9.6783C11.5624 9.56789 12.0678 9.35025 12.4587 9.04129C12.5915 9.33167 12.6387 9.65178 12.6387 9.65178C12.6387 9.65178 12.7406 9.63319 12.826 9.68629C12.906 9.73618 12.966 9.83969 12.926 10.1067C12.8442 10.6063 12.6315 11.0118 12.2733 11.3845C12.0569 11.6181 11.7933 11.8219 11.4914 11.9695C11.3314 12.0539 11.1605 12.1266 10.9805 12.1855C9.63508 12.6252 8.25872 12.142 7.81326 11.1047C7.7769 11.0267 7.74963 10.9449 7.72417 10.8595C7.53508 10.1757 7.69512 9.35556 8.19875 8.83956C8.22784 8.80665 8.26053 8.7679 8.26053 8.71907C8.26053 8.67819 8.23508 8.63518 8.21144 8.60492C8.0369 8.3501 7.42783 7.91587 7.55146 7.07605C7.63873 6.47247 8.16597 6.04727 8.6587 6.07274C8.70052 6.07487 8.74055 6.07752 8.78419 6.07963C8.99692 6.09238 9.18235 6.11945 9.3569 6.12689C9.65144 6.13963 9.9151 6.09663 10.2296 5.83598C10.3351 5.74785 10.4206 5.67194 10.5624 5.64752C10.5788 5.64487 10.6151 5.63159 10.6896 5.6353C10.766 5.63956 10.8387 5.66027 10.9042 5.70379C11.1551 5.87049 11.1896 6.27499 11.2042 6.57069C11.2114 6.73949 11.2315 7.14825 11.2387 7.26503C11.2551 7.53312 11.3242 7.57081 11.4678 7.61805C11.5478 7.64459 11.6224 7.66425 11.7315 7.69503C12.0642 7.78847 12.2605 7.88296 12.3842 8.00452C12.4587 8.08043 12.4933 8.16114 12.5042 8.2381C12.5424 8.5237 12.2824 8.87672 11.5915 9.19736C10.8369 9.54772 9.92055 9.63638 9.28601 9.5663C9.23874 9.56099 9.06415 9.54136 9.06415 9.54136C8.5587 9.47339 8.26963 10.1274 8.57508 10.576C8.76963 10.8648 9.30234 11.0527 9.83688 11.0532C11.0605 11.0532 12.0005 10.5309 12.3514 10.0796C12.3624 10.0664 12.3624 10.0648 12.3787 10.0398C12.3951 10.0138 12.3824 9.99949 12.3605 10.0143C12.0751 10.2097 10.8042 10.9863 9.44781 10.7528C9.44781 10.7528 9.28235 10.7257 9.13144 10.6668C9.01144 10.62 8.76055 10.5048 8.72964 10.2479C9.82783 10.5871 10.5169 10.2665 10.5169 10.2665V10.2649ZM6.68419 5.34599C7.10601 4.85972 7.62235 4.43663 8.08781 4.19934C8.10417 4.19138 8.12052 4.20836 8.11324 4.22429C8.07506 4.29118 8.00417 4.43398 7.98235 4.54227C7.97872 4.55927 7.99692 4.57201 8.00964 4.56192C8.29873 4.36496 8.80055 4.15421 9.24237 4.12714C9.26237 4.12609 9.26963 4.1505 9.25508 4.16165C9.18963 4.21314 9.11694 4.28429 9.06239 4.35596C9.0533 4.36816 9.06054 4.38567 9.0769 4.38567C9.38599 4.38779 9.82421 4.49609 10.1078 4.65589C10.126 4.6665 10.1115 4.70419 10.0915 4.69889C9.66055 4.60014 8.9569 4.52529 8.22417 4.70365C7.57144 4.86292 7.07326 5.1087 6.70962 5.37359C6.69144 5.38687 6.66964 5.36245 6.68419 5.34547V5.34599Z" fill="var(--fill-0, black)"/>
</g>
</svg>
