<svg preserveAspectRatio="none" width="100%" height="100%" overflow="visible" style="display: block;" viewBox="0 0 20.0228 20.0227" fill="none" xmlns="http://www.w3.org/2000/svg">
<g id="icon">
<path id="Vector" d="M10.0114 20.0227C15.541 20.0227 20.0228 15.5405 20.0228 10.0114C20.0228 4.48225 15.541 0 10.0114 0C4.48182 0 0 4.48225 0 10.0114C0 15.5405 4.48182 20.0227 10.0114 20.0227Z" fill="var(--fill-0, #2E971A)"/>
<path id="Vector_2" d="M4.9619 11.0151C4.9619 9.29257 5.79144 8.4076 7.12781 8.4076C8.12327 8.4076 8.7392 8.79478 8.96192 8.90541C9.12783 8.73948 9.2369 8.46291 9.2369 8.18635C9.2369 7.68855 8.68463 7.19076 7.07326 7.19076C5.18463 7.19076 3.58008 8.51823 3.58008 11.0151C3.58008 13.5121 5.02553 14.8395 6.90735 14.8395C8.06872 14.8395 8.9619 14.4523 9.2369 14.3417V12.9589C8.9619 13.1802 8.02099 13.6227 7.12781 13.6227C5.9119 13.6227 4.9619 12.7377 4.9619 11.0151ZM14.1687 10.9598C14.9983 9.96421 15.7801 8.79478 16.3324 7.30137L15.1165 6.85889C14.3415 8.96862 13.1733 10.4067 11.7892 11.5762V4.30664H10.4619V14.6815H11.7892V13.1249C12.2869 12.7377 12.7301 12.3505 13.2346 11.908L14.4528 14.0178C14.7301 14.5156 15.171 14.7921 15.7801 14.7921C16.1119 14.7921 16.3324 14.6815 16.3892 14.6262L14.1687 10.9677V10.9598Z" fill="var(--fill-0, white)"/>
</g>
</svg>
