<svg preserveAspectRatio="none" width="100%" height="100%" overflow="visible" style="display: block;" viewBox="0 0 16.0182 16.0187" fill="none" xmlns="http://www.w3.org/2000/svg">
<g id="icon">
<path id="Vector" d="M8.00907 16.0187C12.4327 16.0187 16.0182 12.4328 16.0182 8.00936C16.0182 3.58593 12.4327 0 8.00907 0C3.58543 0 0 3.58593 0 8.00936C0 12.4328 3.58543 16.0187 8.00907 16.0187Z" fill="var(--fill-0, #2CA01C)"/>
<path id="Vector_2" d="M2.23047 8.0095C2.23047 9.70366 3.60867 11.0565 5.33412 11.0565H5.77592V9.92492H5.33412C4.2723 9.92492 3.38685 9.05886 3.38685 8.0095C3.38685 6.96014 4.2723 6.09408 5.33412 6.09408H6.39594V12.0173C6.39594 12.6306 6.92685 13.1489 7.55412 13.1489V4.95621H5.33412C3.60867 4.95621 2.23047 6.30903 2.23047 8.00319V8.0095ZM10.6632 4.96254H10.2214V6.09408H10.6632C11.725 6.09408 12.6105 6.96014 12.6105 8.0095C12.6105 9.05886 11.725 9.92492 10.6632 9.92492H9.60139V4.00166C9.60139 3.38848 9.07048 2.87012 8.44503 2.87012V11.0565H10.6632C12.3886 11.0565 13.7687 9.70366 13.7687 8.0095C13.7687 6.31534 12.3886 4.96254 10.6632 4.96254Z" fill="var(--fill-0, white)"/>
</g>
</svg>
