<svg preserveAspectRatio="none" width="100%" height="100%" overflow="visible" style="display: block;" viewBox="0 0 98.6817 14.3501" fill="none" xmlns="http://www.w3.org/2000/svg">
<g id="text">
<path id="Vector" d="M8.16364 6.28054C7.45455 5.40463 6.09319 4.88281 4.78864 4.88281C2.16137 4.88281 0 6.70918 0 9.61645C0 12.5983 2.2 14.3501 4.84546 14.3501C6.16819 14.3501 7.39774 13.9028 8.14319 13.1015L6.74546 11.6851C6.31819 12.2069 5.55455 12.4865 4.86364 12.4865C3.16819 12.4865 2.32955 11.0142 2.32955 9.61645C2.32955 8.21872 3.15 6.74645 4.78864 6.74645C5.51591 6.74645 6.27955 7.11918 6.6341 7.62236L8.16364 6.28054Z" fill="var(--fill-0, black)"/>
<path id="Vector_2" d="M9.39551 14.0892H11.6319V9.29963C11.6319 8.64736 12.0228 6.89554 14.0342 6.89554C14.241 6.89554 14.4273 6.91418 14.7251 6.98872V4.93872C14.5751 4.90145 14.3523 4.88281 14.1842 4.88281C13.0091 4.88281 12.0591 5.60963 11.5751 6.63463H11.5387V5.14372H9.39551V14.0892Z" fill="var(--fill-0, black)"/>
<path id="Vector_3" d="M17.3433 8.7219C17.4365 7.47327 18.4978 6.56009 19.8206 6.56009C21.2751 6.56009 21.9274 7.56645 21.9274 8.7219H17.3433ZM24.1638 9.72827C24.1638 6.50418 22.3365 4.88281 19.8388 4.88281C17.1365 4.88281 15.1069 6.78372 15.1069 9.67236C15.1069 12.5796 17.1569 14.3501 19.9138 14.3501C21.6092 14.3501 22.8774 13.7537 23.7524 12.561L22.2615 11.3683C21.7592 12.0765 21.0138 12.5237 19.8956 12.5237C18.591 12.5237 17.4365 11.5919 17.3433 10.3246H24.1456C24.1638 10.1196 24.1638 9.93327 24.1638 9.72827Z" fill="var(--fill-0, black)"/>
<path id="Vector_4" d="M34.9681 0H32.7317V6.28046H32.6772C32.2113 5.70273 31.3158 4.88273 29.6772 4.88273C27.1226 4.88273 25.334 6.93273 25.334 9.57909C25.334 12.1882 27.0113 14.35 29.7317 14.35C30.9817 14.35 32.1931 13.7723 32.8067 12.7473H32.8454V14.0891H34.9681V0ZM27.6067 9.57909C27.6067 8.18137 28.4454 6.70909 30.1794 6.70909C31.8204 6.70909 32.8067 8.21864 32.8067 9.61637C32.8067 11.0141 31.8204 12.4864 30.1794 12.4864C28.4454 12.4864 27.6067 10.9768 27.6067 9.57909Z" fill="var(--fill-0, black)"/>
<path id="Vector_5" d="M37.2681 14.0887H39.5044V5.14322H37.2681V14.0887ZM36.9521 2.10549C36.9521 2.81367 37.5476 3.44731 38.3681 3.44731C39.1885 3.44731 39.8226 2.86958 39.8226 2.10549C39.8226 1.3414 39.1885 0.763672 38.3681 0.763672C37.5476 0.763672 36.9521 1.39731 36.9521 2.10549Z" fill="var(--fill-0, black)"/>
<path id="Vector_6" d="M42.7251 6.93326V11.1078C42.7251 12.8224 43.266 14.276 45.6319 14.276C46.1365 14.276 46.7319 14.1828 47.1228 14.0337L47.0478 12.2819C46.7887 12.4124 46.3955 12.4683 46.0978 12.4683C45.1115 12.4683 44.9251 11.8905 44.9251 11.0892V6.93326H47.1615V5.14417H44.9251V2.55371H42.7251V5.14417H41.1592V6.93326H42.7251Z" fill="var(--fill-0, black)"/>
<path id="Vector_7" d="M48.8154 14.0891H51.0518V9.50455H51.1086L54.6495 14.0891H57.6132L53.4927 9.18773L57.37 5.14364H54.4995L51.1086 8.90818H51.0518V0H48.8154V14.0891Z" fill="var(--fill-0, black)"/>
<path id="Vector_8" d="M64.1164 14.0892H66.2027V8.64736C66.2027 6.85827 65.4209 4.88281 62.2141 4.88281C60.855 4.88281 59.4368 5.36736 58.4323 6.29918L59.5868 7.65963C60.1641 7.0819 61.0777 6.63463 62.0277 6.63463C63.1459 6.63463 64.0777 7.17509 64.0777 8.27463V8.49827C61.2823 8.49827 57.9277 8.871 57.9277 11.536C57.9277 13.6233 59.8482 14.3128 61.2823 14.3128C62.5505 14.3128 63.6118 13.7351 64.0596 12.9524H64.1164V14.0892ZM64.0777 10.3246C64.0777 11.741 63.2573 12.6169 61.73 12.6169C60.9664 12.6169 60.1641 12.356 60.1641 11.4987C60.1641 10.1755 62.1596 10.0078 63.5755 10.0078H64.0777V10.3246Z" fill="var(--fill-0, black)"/>
<path id="Vector_9" d="M68.125 14.0892H70.3614V9.29963C70.3614 8.64736 70.7546 6.89554 72.7659 6.89554C72.9705 6.89554 73.1568 6.91418 73.4568 6.98872V4.93872C73.3068 4.90145 73.0841 4.88281 72.9159 4.88281C71.7409 4.88281 70.7909 5.60963 70.3068 6.63463H70.2682V5.14372H68.125V14.0892Z" fill="var(--fill-0, black)"/>
<path id="Vector_10" d="M85.8202 4.88281C84.4793 4.88281 83.4725 5.49781 82.8747 6.57872C82.3725 5.57236 81.4588 4.88281 80.0793 4.88281C78.6452 4.88281 77.6952 5.70281 77.3043 6.57872H77.2656V5.14372H75.1406V14.0892H77.377V9.16918C77.377 7.97645 77.9929 6.74645 79.3338 6.74645C80.4725 6.74645 80.9929 7.58509 80.9929 8.68463V14.0892H83.2293V9.20645C83.2293 8.051 83.8065 6.74645 85.2043 6.74645C86.6406 6.74645 86.8815 8.06963 86.8815 9.1319V14.0892H89.1179V8.49827C89.1179 6.6719 88.1497 4.88281 85.8202 4.88281Z" fill="var(--fill-0, black)"/>
<path id="Vector_11" d="M96.5931 14.0892H98.6817V8.64736C98.6817 6.85827 97.8977 4.88281 94.6931 4.88281C93.3317 4.88281 91.9158 5.36736 90.909 6.29918L92.0658 7.65963C92.6431 7.0819 93.5567 6.63463 94.5067 6.63463C95.6249 6.63463 96.5567 7.17509 96.5567 8.27463V8.49827C93.7613 8.49827 90.4067 8.871 90.4067 11.536C90.4067 13.6233 92.3249 14.3128 93.7613 14.3128C95.0272 14.3128 96.0908 13.7351 96.5386 12.9524H96.5931V14.0892ZM96.5567 10.3246C96.5567 11.741 95.7363 12.6169 94.209 12.6169C93.4431 12.6169 92.6431 12.356 92.6431 11.4987C92.6431 10.1755 94.6363 10.0078 96.0522 10.0078H96.5567V10.3246Z" fill="var(--fill-0, black)"/>
</g>
</svg>
