<svg preserveAspectRatio="none" width="100%" height="100%" overflow="visible" style="display: block;" viewBox="0 0 76.8506 14.7231" fill="none" xmlns="http://www.w3.org/2000/svg">
<g id="text">
<path id="Vector" d="M7.76718 14.7167H5.96718V10.2284H5.94172C5.47263 10.9427 4.55627 11.3789 3.55263 11.3789C1.35263 11.3789 0 9.66586 0 7.59238C0 5.51893 1.44718 3.86902 3.51445 3.86902C4.84172 3.86902 5.65081 4.50747 6.01809 5.07009H6.06172V4.07762H7.79445V14.7231H7.78172L7.76718 14.7167ZM3.89991 9.89345C5.22718 9.89345 6.02354 8.72393 6.02354 7.61766C6.02354 6.5114 5.22718 5.31031 3.89991 5.31031C2.49627 5.31031 1.81991 6.47346 1.81991 7.58606C1.81991 8.69864 2.49627 9.89345 3.89991 9.89345Z" fill="var(--fill-0, black)"/>
<path id="Vector_2" d="M16.2017 11.1707H14.4871V10.033H14.4635C14.1471 10.7473 13.2871 11.3731 12.2199 11.3731C10.3417 11.3731 9.55078 9.95701 9.55078 8.50312V4.06543H11.3526V7.99739C11.3526 8.83814 11.549 9.88754 12.7053 9.88754C13.8635 9.88754 14.3926 8.90774 14.3926 7.96579V4.06543H16.2071V11.1582L16.2017 11.1707Z" fill="var(--fill-0, black)"/>
<path id="Vector_3" d="M18.0396 4.07715H19.8559V11.1698H18.0396V4.07715Z" fill="var(--fill-0, black)"/>
<path id="Vector_4" d="M26.5871 6.04333C26.3034 5.64508 25.6834 5.35428 25.0944 5.35428C23.7671 5.35428 23.1034 6.51744 23.1034 7.63004C23.1034 8.74262 23.7798 9.90571 25.1525 9.90571C25.7144 9.90571 26.3271 9.68446 26.6762 9.26735L27.8016 10.3926C27.1998 11.0309 26.2016 11.3851 25.1344 11.3851C22.9962 11.3851 21.2144 9.99424 21.2144 7.63635C21.2144 5.27842 22.9653 3.8877 25.0834 3.8877C26.138 3.8877 27.2398 4.2986 27.8071 4.99397L26.5689 6.05597L26.5871 6.04333Z" fill="var(--fill-0, black)"/>
<path id="Vector_5" d="M28.731 0H30.5383V7.06744H30.5819L33.3274 4.08369H35.6474L32.5183 7.29502L35.8492 11.1828H33.4583L30.5947 7.54787H30.551V11.1828H28.7383V0H28.7256H28.731Z" fill="var(--fill-0, black)"/>
<path id="Vector_6" d="M38.4981 0V4.98135H38.5472C38.9217 4.51987 39.649 3.87507 40.9763 3.87507C43.0363 3.87507 44.4835 5.49969 44.4835 7.59844C44.4835 9.69718 43.1308 11.385 40.9308 11.385C39.9199 11.385 38.9399 10.9235 38.4472 10.1144H38.4217V11.1765H36.709V0H38.4981ZM40.5653 5.31638C39.2381 5.31638 38.4399 6.51747 38.4399 7.62373C38.4399 8.73 39.2381 9.89953 40.5653 9.89953C41.9672 9.89953 42.6435 8.70471 42.6435 7.59211C42.6435 6.47954 41.9672 5.31638 40.5653 5.31638Z" fill="var(--fill-0, black)"/>
<path id="Vector_7" d="M49.4215 3.875C51.6069 3.875 53.3524 5.36687 53.3524 7.59836C53.3524 9.82985 51.6015 11.3848 49.4215 11.3848C47.2397 11.3848 45.4888 9.82985 45.4888 7.59836C45.4888 5.36687 47.2397 3.875 49.4215 3.875ZM49.4215 9.90569C50.8488 9.90569 51.5124 8.71095 51.5124 7.59836C51.5124 6.4858 50.8488 5.32264 49.4215 5.32264C47.9924 5.32264 47.3288 6.4858 47.3288 7.59836C47.3288 8.71095 47.9924 9.90569 49.4215 9.90569Z" fill="var(--fill-0, black)"/>
<path id="Vector_8" d="M58.2639 3.875C60.4457 3.875 62.1966 5.36687 62.1966 7.59836C62.1966 9.82985 60.4457 11.3848 58.2639 11.3848C56.0839 11.3848 54.333 9.82985 54.333 7.59836C54.333 5.36687 56.0839 3.875 58.2639 3.875ZM58.2639 9.90569C59.6948 9.90569 60.3585 8.71095 60.3585 7.59836C60.3585 6.4858 59.6948 5.32264 58.2639 5.32264C56.8366 5.32264 56.173 6.4858 56.173 7.59836C56.173 8.71095 56.8366 9.90569 58.2639 9.90569Z" fill="var(--fill-0, black)"/>
<path id="Vector_9" d="M63.6182 0H65.4273V7.06744H65.4782L68.2218 4.08369H70.5472L67.4182 7.29502L70.7491 11.1828H68.36L65.4963 7.54787H65.4454V11.1828H63.6327V0H63.6182Z" fill="var(--fill-0, black)"/>
<path id="Vector_10" d="M75.6669 5.96742C75.3506 5.55653 74.7506 5.20253 74.0869 5.20253C73.5124 5.20253 72.9251 5.4048 72.9251 5.96742C72.9251 6.53004 73.4869 6.65645 74.4924 6.89669C75.5669 7.14955 76.8306 7.62365 76.8306 9.01442C76.8306 10.7465 75.4015 11.3787 73.816 11.3787C72.7033 11.3787 71.5397 10.9677 70.8506 10.2091L72.0397 9.11553C72.4306 9.61494 73.1069 10.0006 73.8924 10.0006C74.416 10.0006 75.0542 9.79187 75.0542 9.15973C75.0542 8.57189 74.4924 8.39487 73.3979 8.14202C72.3233 7.88916 71.2615 7.46562 71.2615 6.13178C71.2615 4.5514 72.7088 3.875 74.1379 3.875C75.1742 3.875 76.2615 4.229 76.8506 4.95598L75.6742 5.97375V5.96111L75.6669 5.96742Z" fill="var(--fill-0, black)"/>
</g>
</svg>
