<svg preserveAspectRatio="none" width="100%" height="100%" overflow="visible" style="display: block;" viewBox="0 0 68.5817 15.1594" fill="none" xmlns="http://www.w3.org/2000/svg">
<g id="text">
<path id="Vector" d="M11.3218 6.96633V11.5241H9.50728V7.47836C9.50728 6.61233 9.31091 5.53134 8.14728 5.53134C6.98546 5.53134 6.54909 6.59969 6.54909 7.54158V11.5241H4.74182V7.11804C4.74182 6.2204 4.31637 5.53767 3.39455 5.53767C2.30727 5.53767 1.80727 6.5428 1.80727 7.50998V11.5179H0V4.22911H1.72V5.3986H1.74364C2.06 4.69058 2.83091 4.02051 3.99455 4.02051C5.15818 4.02051 5.85273 4.58311 6.26364 5.3986C6.75091 4.51991 7.56 4.02051 8.64728 4.02051C10.5309 4.02051 11.3218 5.47445 11.3218 6.96633Z" fill="var(--fill-0, black)"/>
<path id="Vector_2" d="M17.6235 10.5886H17.5726C17.2126 11.2269 16.3526 11.6947 15.3217 11.6947C14.1599 11.6947 12.6035 11.1322 12.6035 9.4317C12.6035 7.25709 15.3217 6.95996 17.5853 6.95996V6.77665C17.5853 5.87899 16.8272 5.43649 15.9235 5.43649C15.1508 5.43649 14.4126 5.79679 13.9508 6.27092L13.0144 5.16467C13.8308 4.40607 14.9744 4.00781 16.0817 4.00781C18.6781 4.00781 19.3108 5.61981 19.3108 7.07374V11.5051H17.6235V10.5758H17.6308L17.6235 10.5886ZM17.5981 8.19898H17.1872C16.0362 8.19898 14.4253 8.33805 14.4253 9.41265C14.4253 10.108 15.0762 10.323 15.6962 10.323C16.9344 10.323 17.5981 9.61498 17.5981 8.45816V8.19898Z" fill="var(--fill-0, black)"/>
<path id="Vector_3" d="M21.1382 4.22949H22.9453V11.5181H21.1382V4.22949Z" fill="var(--fill-0, black)"/>
<path id="Vector_4" d="M22.0801 3.04743C22.6873 3.04743 23.1873 2.54803 23.1873 1.93485C23.1873 1.32167 22.6928 0.822266 22.0801 0.822266C21.4673 0.822266 20.9746 1.32167 20.9746 1.93485C20.9746 2.54803 21.4673 3.04743 22.0801 3.04743Z" fill="var(--fill-0, black)"/>
<path id="Vector_5" d="M44.889 3.08454C45.4963 3.08454 45.9945 2.58516 45.9945 1.97196C45.9945 1.35877 45.5017 0.859375 44.889 0.859375C44.2745 0.859375 43.7817 1.35877 43.7817 1.97196C43.7817 2.58516 44.2745 3.08454 44.889 3.08454Z" fill="var(--fill-0, black)"/>
<path id="Vector_6" d="M24.7598 0H26.5743V11.4798H24.7598V0Z" fill="var(--fill-0, black)"/>
<path id="Vector_7" d="M33.3889 6.24567C33.1053 5.83478 32.478 5.53767 31.8907 5.53767C30.5635 5.53767 29.8944 6.73874 29.8944 7.87662C29.8944 9.01449 30.5707 10.2155 31.9416 10.2155C32.5053 10.2155 33.118 9.98805 33.4653 9.55811L34.5962 10.715C33.9962 11.3725 32.998 11.7328 31.9235 11.7328C29.7798 11.7328 27.9907 10.3041 27.9907 7.87662C27.9907 5.44916 29.7416 4.02051 31.8725 4.02051C32.9344 4.02051 34.0344 4.44405 34.6035 5.15838L33.3635 6.252L33.3835 6.23934L33.3889 6.24567Z" fill="var(--fill-0, black)"/>
<path id="Vector_8" d="M42.2091 11.5243H40.3945V7.51641C40.3945 6.65038 40.2111 5.58836 39.0474 5.58836C37.8838 5.58836 37.3418 6.58083 37.3418 7.54803V11.5304H35.5327V0.0380859H37.3418V5.247H37.3656C37.6493 4.64014 38.4527 4.0143 39.5273 4.0143C41.4109 4.0143 42.2018 5.46825 42.2018 6.96012V11.5243H42.2091Z" fill="var(--fill-0, black)"/>
<path id="Vector_9" d="M43.9834 4.22949H45.7925V11.5181H43.9834V4.22949Z" fill="var(--fill-0, black)"/>
<path id="Vector_10" d="M58.9546 6.96633V11.5241H57.1401V7.47836C57.1401 6.61233 56.9437 5.53134 55.7801 5.53134C54.6183 5.53134 54.1819 6.59969 54.1819 7.54158V11.5241H52.3728V7.11804C52.3728 6.2204 51.9492 5.53767 51.0255 5.53767C49.9401 5.53767 49.4401 6.5428 49.4401 7.50998V11.5179H47.6328V4.22911H49.351V5.3986H49.3764C49.6928 4.69058 50.4637 4.02051 51.6274 4.02051C52.791 4.02051 53.4855 4.58311 53.8964 5.3986C54.3837 4.51991 55.1983 4.02051 56.2801 4.02051C58.1637 4.02051 58.9546 5.47445 58.9546 6.96633Z" fill="var(--fill-0, black)"/>
<path id="Vector_11" d="M62.4998 4.22958V5.24734H62.5507C62.9107 4.67208 63.7271 4.01465 65.0598 4.01465C67.1326 4.01465 68.5817 5.68985 68.5817 7.83918C68.5817 9.9885 67.2217 11.7268 65.0235 11.7268C64.0107 11.7268 63.0871 11.2717 62.6271 10.5448H62.6017V15.1594H60.7871V4.22958H62.5126H62.4998ZM64.6435 5.50652C63.3089 5.50652 62.5126 6.73921 62.5126 7.8771C62.5126 9.01496 63.3162 10.2161 64.6435 10.2161C66.0526 10.2161 66.7289 8.98968 66.7289 7.84548C66.7289 6.70128 66.0526 5.50652 64.6435 5.50652Z" fill="var(--fill-0, black)"/>
</g>
</svg>
