<svg preserveAspectRatio="none" width="100%" height="100%" overflow="visible" style="display: block;" viewBox="0 0 78.9452 11.4801" fill="none" xmlns="http://www.w3.org/2000/svg">
<g id="text">
<path id="Vector" d="M6.53091 5.02443C5.96364 4.3237 4.87455 3.90625 3.83091 3.90625C1.72909 3.90625 0 5.36734 0 7.69316C0 10.0786 1.76 11.4801 3.87637 11.4801C4.93455 11.4801 5.91819 11.1222 6.51455 10.4812L5.39637 9.34807C5.05455 9.76552 4.44364 9.98916 3.89091 9.98916C2.53455 9.98916 1.86364 8.81134 1.86364 7.69316C1.86364 6.57498 2.52 5.39716 3.83091 5.39716C4.41273 5.39716 5.02364 5.69534 5.30728 6.09789L6.53091 5.02443Z" fill="var(--fill-0, black)"/>
<path id="Vector_2" d="M7.5166 11.2713H9.30569V7.4397C9.30569 6.91789 9.61842 5.51643 11.2275 5.51643C11.393 5.51643 11.5421 5.53134 11.7802 5.59098V3.95098C11.6602 3.92116 11.4821 3.90625 11.3475 3.90625C10.4075 3.90625 9.64751 4.4877 9.26024 5.3077H9.23115V4.11498H7.5166V11.2713Z" fill="var(--fill-0, black)"/>
<path id="Vector_3" d="M13.875 6.97752C13.9496 5.97861 14.7987 5.24807 15.8569 5.24807C17.0205 5.24807 17.5423 6.05316 17.5423 6.97752H13.875ZM19.3314 7.78261C19.3314 5.20334 17.8696 3.90625 15.8714 3.90625C13.7096 3.90625 12.0859 5.42698 12.0859 7.73789C12.0859 10.0637 13.7259 11.4801 15.9314 11.4801C17.2878 11.4801 18.3023 11.003 19.0023 10.0488L17.8096 9.09461C17.4078 9.66116 16.8114 10.019 15.9169 10.019C14.8732 10.019 13.9496 9.27352 13.875 8.2597H19.3169C19.3314 8.0957 19.3314 7.94661 19.3314 7.78261Z" fill="var(--fill-0, black)"/>
<path id="Vector_4" d="M27.9749 0H26.1858V5.02436H26.1421C25.7694 4.56218 25.053 3.90618 23.7421 3.90618C21.6985 3.90618 20.2676 5.54618 20.2676 7.66327C20.2676 9.75054 21.6094 11.48 23.7858 11.48C24.7858 11.48 25.7549 11.0178 26.2458 10.1978H26.2767V11.2713H27.9749V0ZM22.0858 7.66327C22.0858 6.54509 22.7567 5.36727 24.1439 5.36727C25.4567 5.36727 26.2458 6.57491 26.2458 7.69309C26.2458 8.81127 25.4567 9.98909 24.1439 9.98909C22.7567 9.98909 22.0858 8.78145 22.0858 7.66327Z" fill="var(--fill-0, black)"/>
<path id="Vector_5" d="M29.8143 11.2713H31.6033V4.11496H29.8143V11.2713ZM29.5615 1.68478C29.5615 2.25133 30.0379 2.75824 30.6943 2.75824C31.3506 2.75824 31.8579 2.29606 31.8579 1.68478C31.8579 1.07351 31.3506 0.611328 30.6943 0.611328C30.0379 0.611328 29.5615 1.11824 29.5615 1.68478Z" fill="var(--fill-0, black)"/>
<path id="Vector_6" d="M34.18 5.5466V8.88624C34.18 10.2579 34.6127 11.4208 36.5054 11.4208C36.9091 11.4208 37.3854 11.3462 37.6982 11.227L37.6382 9.82551C37.4309 9.92988 37.1163 9.9746 36.8782 9.9746C36.0891 9.9746 35.94 9.51242 35.94 8.87133V5.5466H37.7291V4.11533H35.94V2.04297H34.18V4.11533H32.9272V5.5466H34.18Z" fill="var(--fill-0, black)"/>
<path id="Vector_7" d="M39.0527 11.2713H40.8418V7.60364H40.8873L43.72 11.2713H46.0909L42.7946 7.35018L45.8964 4.11491H43.6L40.8873 7.12654H40.8418V0H39.0527V11.2713Z" fill="var(--fill-0, black)"/>
<path id="Vector_8" d="M51.2927 11.2713H52.9618V6.91789C52.9618 5.48661 52.3363 3.90625 49.7709 3.90625C48.6836 3.90625 47.5491 4.29389 46.7454 5.03934L47.6691 6.1277C48.1309 5.66552 48.8618 5.3077 49.6218 5.3077C50.5163 5.3077 51.2618 5.74007 51.2618 6.6197V6.79861C49.0254 6.79861 46.3418 7.0968 46.3418 9.2288C46.3418 10.8986 47.8782 11.4503 49.0254 11.4503C50.04 11.4503 50.8891 10.9881 51.2473 10.3619H51.2927V11.2713ZM51.2618 8.2597C51.2618 9.39279 50.6054 10.0935 49.3836 10.0935C48.7727 10.0935 48.1309 9.8848 48.1309 9.19898C48.1309 8.14043 49.7272 8.00625 50.86 8.00625H51.2618V8.2597Z" fill="var(--fill-0, black)"/>
<path id="Vector_9" d="M54.5 11.2713H56.2891V7.4397C56.2891 6.91789 56.6036 5.51643 58.2127 5.51643C58.3764 5.51643 58.5255 5.53134 58.7655 5.59098V3.95098C58.6455 3.92116 58.4673 3.90625 58.3327 3.90625C57.3927 3.90625 56.6327 4.4877 56.2455 5.3077H56.2145V4.11498H54.5V11.2713Z" fill="var(--fill-0, black)"/>
<path id="Vector_10" d="M68.656 3.90625C67.5832 3.90625 66.7778 4.39825 66.2996 5.26298C65.8978 4.45789 65.1669 3.90625 64.0632 3.90625C62.9159 3.90625 62.1559 4.56225 61.8432 5.26298H61.8123V4.11498H60.1123V11.2713H61.9014V7.33534C61.9014 6.38116 62.3941 5.39716 63.4669 5.39716C64.3778 5.39716 64.7941 6.06807 64.7941 6.9477V11.2713H66.5832V7.36516C66.5832 6.4408 67.045 5.39716 68.1632 5.39716C69.3123 5.39716 69.505 6.4557 69.505 7.30552V11.2713H71.2941V6.79861C71.2941 5.33752 70.5196 3.90625 68.656 3.90625Z" fill="var(--fill-0, black)"/>
<path id="Vector_11" d="M77.2743 11.2713H78.9452V6.91789C78.9452 5.48661 78.3179 3.90625 75.7543 3.90625C74.6652 3.90625 73.5325 4.29389 72.727 5.03934L73.6525 6.1277C74.1143 5.66552 74.8452 5.3077 75.6052 5.3077C76.4997 5.3077 77.2452 5.74007 77.2452 6.6197V6.79861C75.0088 6.79861 72.3252 7.0968 72.3252 9.2288C72.3252 10.8986 73.8597 11.4503 75.0088 11.4503C76.0216 11.4503 76.8725 10.9881 77.2306 10.3619H77.2743V11.2713ZM77.2452 8.2597C77.2452 9.39279 76.5888 10.0935 75.367 10.0935C74.7543 10.0935 74.1143 9.8848 74.1143 9.19898C74.1143 8.14043 75.7088 8.00625 76.8416 8.00625H77.2452V8.2597Z" fill="var(--fill-0, black)"/>
</g>
</svg>
