<svg preserveAspectRatio="none" width="100%" height="100%" overflow="visible" style="display: block;" viewBox="0 0 16.0182 16.0182" fill="none" xmlns="http://www.w3.org/2000/svg">
<g id="icon">
<path id="Vector" d="M8.0091 16.0182C12.4328 16.0182 16.0182 12.4324 16.0182 8.00909C16.0182 3.5858 12.4328 0 8.0091 0C3.58546 0 0 3.5858 0 8.00909C0 12.4324 3.58546 16.0182 8.0091 16.0182Z" fill="var(--fill-0, #2E971A)"/>
<path id="Vector_2" d="M3.96874 8.81211C3.96874 7.43406 4.63237 6.72608 5.70147 6.72608C6.49783 6.72608 6.99058 7.03582 7.16876 7.12433C7.30148 6.99159 7.38874 6.77033 7.38874 6.54908C7.38874 6.15084 6.94692 5.7526 5.65783 5.7526C4.14692 5.7526 2.86328 6.81458 2.86328 8.81211C2.86328 10.8096 4.01965 11.8716 5.5251 11.8716C6.45419 11.8716 7.16874 11.5619 7.38874 11.4734V10.3671C7.16874 10.5441 6.41601 10.8981 5.70147 10.8981C4.72874 10.8981 3.96874 10.1901 3.96874 8.81211ZM11.3342 8.76786C11.9978 7.97137 12.6233 7.03582 13.0651 5.84109L12.0924 5.48711C11.4724 7.17489 10.5378 8.32537 9.43056 9.26093V3.44531H8.36874V11.7452H9.43056V10.4999C9.82874 10.1901 10.1833 9.88042 10.5869 9.52642L11.5615 11.2142C11.7833 11.6125 12.136 11.8337 12.6233 11.8337C12.8888 11.8337 13.0651 11.7452 13.1106 11.7009L11.3342 8.77418V8.76786Z" fill="var(--fill-0, white)"/>
</g>
</svg>
