<svg preserveAspectRatio="none" width="100%" height="100%" overflow="visible" style="display: block;" viewBox="0 0 116.06 32" fill="none" xmlns="http://www.w3.org/2000/svg">
<g id="Layer_1-2">
<path id="Vector" d="M16.0185 32C24.8651 32 32.0371 24.8363 32.0371 16C32.0371 7.16373 24.8651 0 16.0185 0C7.17204 0 0 7.16373 0 16C0 24.8363 7.17204 32 16.0185 32Z" fill="var(--fill-0, #D52B1E)"/>
<path id="Vector_2" d="M12.4448 21.8667C10.6043 20.5403 8.8353 19.1253 7.14107 17.6251C6.51795 18.9904 5.95943 20.3877 5.46446 21.8171C8.16625 24.1067 11.7795 26.7307 14.257 28.2064C17.4714 19.8933 22.4868 14.4715 27.2855 10.688C26.6698 9.38667 25.8331 8.2064 24.8255 7.2C19.7103 11.1184 15.467 16.1243 12.4448 21.8667Z" fill="var(--fill-0, white)"/>
<path id="Vector_3" d="M36.5719 23.0149V21.0347H38.3057V18.1691H40.7405V21.0347H43.218V23.0149H40.7405V27.6123C40.7405 28.4976 40.9471 29.1376 42.0396 29.1376C42.3707 29.1376 42.8048 29.0773 43.0931 28.9312L43.1748 30.8688C42.7407 31.0325 42.0818 31.1355 41.5233 31.1355C38.9 31.1355 38.3019 29.5285 38.3019 27.6299V23.0149H36.5719V23.0149Z" fill="var(--fill-0, black)"/>
<path id="Vector_4" d="M53.9969 30.9333H51.6438V29.344H51.6011C51.167 30.3323 49.9923 31.2213 48.5255 31.2213C45.9449 31.2213 44.8696 29.2411 44.8696 27.2213V21.0347H47.3471V26.5211C47.3471 27.6981 47.6141 29.1595 49.2052 29.1595C50.7964 29.1595 51.5188 27.7979 51.5188 26.4784V21.0347H53.9964V30.9333H53.9969Z" fill="var(--fill-0, black)"/>
<path id="Vector_5" d="M56.5599 20.8496H58.9338V22.4992H58.9765C59.5142 21.3648 60.5677 20.5616 61.8674 20.5616C62.0521 20.5616 62.3015 20.5829 62.4654 20.6219V22.8901C62.1343 22.8085 61.9277 22.7872 61.6997 22.7872C59.4715 22.7872 59.0374 24.7248 59.0374 25.4469V30.7483H56.5599V20.8496V20.8496Z" fill="var(--fill-0, black)"/>
<path id="Vector_6" d="M66.5517 15.3424V22.2933H66.6121C67.1284 21.6533 68.1178 20.7467 69.937 20.7467C72.7669 20.7467 74.7463 23.0149 74.7463 25.9451C74.7463 28.8752 72.8881 31.2251 69.8729 31.2251C68.4884 31.2251 67.146 30.5851 66.4663 29.4507H66.4236V30.9371H64.0704V15.3456H66.5517V15.3419V15.3424ZM69.3779 22.7664C67.5625 22.7664 66.4663 24.4373 66.4663 25.984C66.4663 27.5307 67.5593 29.1589 69.3779 29.1589C71.2969 29.1589 72.226 27.488 72.226 25.9413C72.2292 24.3947 71.3001 22.7664 69.3779 22.7664Z" fill="var(--fill-0, black)"/>
<path id="Vector_7" d="M81.2103 20.7467C84.2042 20.7467 86.6 22.8304 86.6 25.9451C86.6 29.0597 84.2042 31.2251 81.2103 31.2251C78.2164 31.2251 75.8211 29.0597 75.8211 25.9451C75.8211 22.8304 78.217 20.7467 81.2103 20.7467ZM81.2103 29.1589C83.172 29.1589 84.0798 27.488 84.0798 25.9413C84.0798 24.3947 83.172 22.7664 81.2103 22.7664C79.2486 22.7664 78.3414 24.3947 78.3414 25.9413C78.3414 27.488 79.2491 29.1589 81.2103 29.1589Z" fill="var(--fill-0, black)"/>
<path id="Vector_8" d="M87.1126 23.0149V21.0347H88.8458V18.1691H91.2806V21.0347H93.7582V23.0149H91.2806V27.6123C91.2806 28.4976 91.4873 29.1376 92.5803 29.1376C92.9113 29.1376 93.3454 29.0773 93.6337 28.9312L93.7154 30.8688C93.2813 31.0325 92.623 31.1355 92.0639 31.1355C89.4406 31.1355 88.8426 29.5285 88.8426 27.6299V23.0149H87.1126V23.0149Z" fill="var(--fill-0, black)"/>
<path id="Vector_9" d="M101.917 29.6747H101.857C101.362 30.5424 100.184 31.1787 98.781 31.1787C97.1899 31.1787 95.0647 30.4144 95.0647 28.1067C95.0647 25.1589 98.781 24.7467 101.878 24.7467V24.4976C101.878 23.2816 100.846 22.6843 99.6071 22.6843C98.553 22.6843 97.5423 23.1787 96.9015 23.8187L95.62 22.3147C96.7344 21.2837 98.3042 20.7467 99.81 20.7467C103.362 20.7467 104.227 22.9333 104.227 24.9136V30.9365H101.914V29.6741H101.917V29.6747ZM101.874 26.4176H101.316C99.7459 26.4176 97.5385 26.6027 97.5385 28.0672C97.5385 29.0165 98.4249 29.3045 99.2723 29.3045C100.966 29.3045 101.874 28.3339 101.874 26.7696V26.4176V26.4176Z" fill="var(--fill-0, black)"/>
<path id="Vector_10" d="M108.958 25.6747L105.388 21.0347H108.36L110.507 24.1067L112.717 21.0347H115.565L112.012 25.6747L116.06 30.9333H113.044L110.464 27.3243L107.862 30.9333H104.928L108.958 25.6747V25.6747Z" fill="var(--fill-0, black)"/>
<path id="Vector_11" d="M63.718 7.42773C63.718 9.93813 65.7294 11.7728 68.2855 11.7728C70.8415 11.7728 72.8561 9.94187 72.8561 7.42773V1.664H70.3785V7.13227C70.3785 8.48693 69.4708 9.3936 68.278 9.3936C67.0851 9.3936 66.1779 8.48693 66.1779 7.13227V1.664H63.7041L63.718 7.42773V7.42773Z" fill="var(--fill-0, black)"/>
<path id="Vector_12" d="M79.4696 3.97867H82.4245V11.5733H84.8983V3.97867H87.8494V1.664H79.4696V3.97867V3.97867Z" fill="var(--fill-0, black)"/>
<path id="Vector_13" d="M77.8715 1.66773H75.3977V11.5771H77.8715V1.66773Z" fill="var(--fill-0, black)"/>
<path id="Vector_14" d="M53.7225 3.97867H56.6773V11.5733H59.1511V3.97867H62.1023V1.664H53.7225V3.97867V3.97867Z" fill="var(--fill-0, black)"/>
<path id="Vector_15" d="M40.7405 1.66773H38.2667V11.5771H40.7405V1.66773Z" fill="var(--fill-0, black)"/>
<path id="Vector_16" d="M52.4196 5.8096C52.4196 3.2992 50.405 1.46453 47.849 1.46453C45.293 1.46453 43.2784 3.29547 43.2784 5.8096V11.5733H45.7522V6.10507C45.7522 4.7504 46.6599 3.84373 47.8522 3.84373C49.0445 3.84373 49.9522 4.7504 49.9522 6.10507V11.5733H52.426L52.4191 5.8096H52.4196Z" fill="var(--fill-0, black)"/>
</g>
</svg>
