<svg preserveAspectRatio="none" width="100%" height="100%" overflow="visible" style="display: block;" viewBox="0 0 237 26" fill="none" xmlns="http://www.w3.org/2000/svg">
<g id="Expert Assist Business">
<g id="Expert Assist">
<path id="Vector" d="M29.8863 6.13043H39.6099V8.41134H32.4986V12.143H39.2365V14.3406H32.4986V18.4869H39.9824V20.809H29.8863V6.13043Z" fill="var(--fill-0, black)"/>
<path id="Vector_2" d="M45.2956 15.5218L41.709 10.857H44.6947L46.8511 13.9457L49.0693 10.857H51.9305L48.3645 15.5218L52.4284 20.8081H49.4015L46.8099 17.1803L44.1977 20.8081H41.2541L45.2956 15.5218Z" fill="var(--fill-0, black)"/>
<path id="Vector_3" d="M55.835 10.857V12.246H55.8968C56.3947 11.4579 57.5141 10.5669 59.3383 10.5669C62.1789 10.5669 64.1687 12.8478 64.1687 15.7913C64.1687 18.6937 62.3024 21.0991 59.2756 21.0991C57.8866 21.0991 56.6222 20.4767 55.9792 19.4818H55.938V25H53.4502V10.8579H55.835V10.857ZM58.7795 12.5988C56.9553 12.5988 55.8565 14.2779 55.8565 15.8334C55.8565 17.3889 56.9553 19.026 58.7795 19.026C60.7075 19.026 61.6407 17.3469 61.6407 15.7913C61.6407 14.2358 60.7075 12.5988 58.7795 12.5988Z" fill="var(--fill-0, black)"/>
<path id="Vector_4" d="M75.5114 16.6206H67.9442C68.0481 18.0301 69.3332 19.0672 70.7848 19.0672C72.0287 19.0672 72.858 18.5692 73.4177 17.7821L75.0762 19.1093C74.1019 20.4364 72.6923 21.0991 70.8054 21.0991C67.7374 21.0991 65.4565 19.1298 65.4565 15.8952C65.4565 12.6821 67.7159 10.5669 70.7221 10.5669C73.5001 10.5669 75.532 12.3704 75.532 15.957C75.532 16.1854 75.532 16.3931 75.5114 16.6206ZM73.0442 14.8376C73.0442 13.5525 72.3189 12.4331 70.7015 12.4331C69.2293 12.4331 68.0481 13.4487 67.9442 14.8376H73.0442Z" fill="var(--fill-0, black)"/>
<path id="Vector_5" d="M76.9514 10.857H79.3353V12.5155H79.3765C79.9156 11.3755 80.9732 10.5669 82.2789 10.5669C82.4651 10.5669 82.7141 10.5875 82.8798 10.6287V12.9096C82.5484 12.8263 82.3406 12.8057 82.1123 12.8057C79.8735 12.8057 79.4383 14.7543 79.4383 15.4797V20.8081H76.9505V10.857H76.9514Z" fill="var(--fill-0, black)"/>
<path id="Vector_6" d="M83.7144 12.8477V10.8579H85.4562V7.97611H87.9028V10.8579H90.3905V12.8477H87.9028V17.4713C87.9028 18.3633 88.1096 19.0054 89.2084 19.0054C89.5398 19.0054 89.9759 18.9427 90.266 18.7976L90.3493 20.7463C89.9141 20.9119 89.2505 21.0158 88.6908 21.0158C86.058 21.0158 85.4562 19.3985 85.4562 17.491V12.8468H83.7144V12.8477Z" fill="var(--fill-0, black)"/>
<path id="Vector_7" d="M101.731 6.13043H103.99L110.313 20.809H107.328L105.959 17.4507H99.5947L98.2675 20.809H95.3445L101.731 6.13043ZM105.048 15.211L102.788 9.2406L100.487 15.211H105.048Z" fill="var(--fill-0, black)"/>
<path id="Vector_8" d="M117.271 13.5113C116.836 12.931 116.096 12.4331 115.184 12.4331C114.396 12.4331 113.766 12.7233 113.766 13.5113C113.766 14.2788 114.355 14.4857 115.744 14.817C117.216 15.1698 118.867 15.8325 118.867 17.7821C118.867 20.2081 116.988 21.0991 114.811 21.0991C113.276 21.0991 111.68 20.5188 110.726 19.4612L112.543 17.9272C113.082 18.6319 113.836 19.171 114.914 19.171C115.64 19.171 116.511 18.8809 116.511 17.989C116.511 17.1597 115.833 16.9107 114.32 16.5588C112.848 16.206 111.287 15.6051 111.287 13.7397C111.287 11.5215 113.276 10.5677 115.247 10.5677C116.677 10.5677 118.08 11.0657 118.889 12.0812L117.271 13.5113Z" fill="var(--fill-0, black)"/>
<path id="Vector_9" d="M126.386 13.5113C125.951 12.931 125.122 12.4331 124.209 12.4331C123.421 12.4331 122.612 12.7233 122.612 13.5113C122.612 14.2788 123.38 14.4857 124.769 14.817C126.241 15.1698 127.982 15.8325 127.982 17.7821C127.982 20.2081 126.013 21.0991 123.836 21.0991C122.302 21.0991 120.705 20.5188 119.751 19.4612L121.389 17.9272C121.928 18.6319 122.861 19.171 123.939 19.171C124.665 19.171 125.536 18.8809 125.536 17.989C125.536 17.1597 124.769 16.9107 123.256 16.5588C121.784 16.206 120.313 15.6051 120.313 13.7397C120.313 11.5215 122.302 10.5677 124.273 10.5677C125.703 10.5677 127.196 11.0657 128.004 12.0812L126.386 13.5113Z" fill="var(--fill-0, black)"/>
<path id="Vector_10" d="M130.955 5.98537C131.868 5.98537 132.572 6.62834 132.572 7.4782C132.572 8.32805 131.868 8.97105 130.955 8.97105C130.042 8.97105 129.38 8.26625 129.38 7.4782C129.38 6.69014 130.043 5.98537 130.955 5.98537ZM129.732 10.857H132.219V20.8081H129.732V10.857Z" fill="var(--fill-0, black)"/>
<path id="Vector_11" d="M140.162 13.5113C139.727 12.931 138.897 12.4331 137.985 12.4331C137.197 12.4331 136.388 12.7233 136.388 13.5113C136.388 14.2788 137.156 14.4857 138.545 14.817C140.017 15.1698 141.758 15.8325 141.758 17.7821C141.758 20.2081 139.788 21.0991 137.611 21.0991C136.077 21.0991 134.481 20.5188 133.527 19.4612L135.165 17.9272C135.704 18.6319 136.637 19.171 137.715 19.171C138.441 19.171 139.312 18.8809 139.312 17.989C139.312 17.1597 138.545 16.9107 137.032 16.5588C135.56 16.206 134.088 15.6051 134.088 13.7397C134.088 11.5215 136.078 10.5677 138.048 10.5677C139.479 10.5677 140.971 11.0657 141.78 12.0812L140.162 13.5113Z" fill="var(--fill-0, black)"/>
<path id="Vector_12" d="M142.573 12.8477V10.8579H144.314V7.97611H146.761V10.8579H149.249V12.8477H146.761V17.4713C146.761 18.3633 146.968 19.0054 148.067 19.0054C148.398 19.0054 148.834 18.9427 149.124 18.7976L149.208 20.7463C148.772 20.9119 148.109 21.0158 147.549 21.0158C144.916 21.0158 144.314 19.3985 144.314 17.491V12.8468H142.573V12.8477Z" fill="var(--fill-0, black)"/>
</g>
<g id="Checkball">
<path id="Vector_13" d="M12 25C18.6274 25 24 19.6274 24 13C24 6.37258 18.6274 1 12 1C5.37258 1 0 6.37258 0 13C0 19.6274 5.37258 25 12 25Z" fill="var(--fill-0, #D52B1E)"/>
<path id="Vector_14" d="M9.33385 17.3997C7.95385 16.4048 6.6267 15.3436 5.35595 14.2188C4.88849 15.2424 4.46938 16.2911 4.09863 17.363C6.1252 19.0806 8.83505 21.0481 10.6933 22.1549C13.104 15.9203 16.8652 11.8537 20.4643 9.01583C20.0022 8.03971 19.3754 7.15492 18.6195 6.39999C14.7831 9.3382 11.6004 13.0931 9.33385 17.3997Z" fill="var(--fill-0, white)"/>
</g>
<g id="Business">
<path id="Vector_15" d="M236.206 12.5929L235.127 13.402C234.712 12.5929 233.82 12.0327 232.741 12.0327C231.725 12.0327 230.688 12.4684 230.688 13.5472C230.688 14.4601 231.414 14.875 233.011 15.207C235.293 15.6841 236.372 16.5347 236.372 18.0492C236.372 20.2691 234.505 21.0575 232.721 21.0575C231.248 21.0575 229.775 20.4766 228.883 19.1695L230.003 18.3397C230.501 19.1903 231.559 19.8542 232.7 19.8542C233.903 19.8542 234.982 19.4185 234.982 18.153C234.982 17.1364 233.965 16.7215 232.119 16.2858C230.978 16.0161 229.339 15.5182 229.339 13.6717C229.339 11.7008 231.04 10.8502 232.804 10.8502C234.152 10.8502 235.584 11.4933 236.206 12.5929Z" fill="var(--fill-0, black)"/>
<path id="Vector_16" d="M227.403 12.5929L226.324 13.402C225.909 12.5929 225.017 12.0327 223.938 12.0327C222.921 12.0327 221.884 12.4684 221.884 13.5472C221.884 14.4601 222.61 14.875 224.208 15.207C226.49 15.6841 227.569 16.5347 227.569 18.0492C227.569 20.2691 225.701 21.0575 223.917 21.0575C222.444 21.0575 220.971 20.4766 220.079 19.1695L221.199 18.3397C221.697 19.1903 222.755 19.8542 223.896 19.8542C225.1 19.8542 226.179 19.4185 226.179 18.153C226.179 17.1364 225.162 16.7215 223.316 16.2858C222.175 16.0161 220.536 15.5182 220.536 13.6717C220.536 11.7008 222.237 10.8502 224 10.8502C225.349 10.8502 226.78 11.4933 227.403 12.5929Z" fill="var(--fill-0, black)"/>
<path id="Vector_17" d="M210.904 15.207H217.522C217.439 13.3813 216.318 12.0327 214.306 12.0327C212.418 12.0327 211.028 13.5472 210.904 15.207ZM218.953 15.6634C218.953 15.8501 218.953 16.0783 218.933 16.3273H210.883C210.924 18.2774 212.439 19.8542 214.431 19.8542C215.883 19.8542 217.003 19.0451 217.543 18.1737L218.601 19.0036C217.46 20.4558 216.028 21.0575 214.431 21.0575C211.547 21.0575 209.41 18.8791 209.41 15.9538C209.41 13.0286 211.547 10.8502 214.306 10.8502C217.356 10.8502 218.953 13.0078 218.953 15.6634Z" fill="var(--fill-0, black)"/>
<path id="Vector_18" d="M198.859 11.0992H200.208C200.249 11.6178 200.291 12.3439 200.291 12.7589H200.332C200.872 11.6386 202.282 10.8502 203.652 10.8502C206.12 10.8502 207.345 12.4477 207.345 14.8543V20.8085H205.934V15.4352C205.934 13.402 205.332 12.0327 203.299 12.0327C201.805 12.0327 200.353 13.236 200.353 15.8294V20.8085H198.942V13.236C198.942 12.7174 198.921 11.763 198.859 11.0992Z" fill="var(--fill-0, black)"/>
<path id="Vector_19" d="M196.224 11.0992V20.8085H194.814V11.0992H196.224ZM196.515 7.36479C196.515 7.94569 196.017 8.36062 195.519 8.36062C195.021 8.36062 194.523 7.94569 194.523 7.36479C194.523 6.78389 195.021 6.36896 195.519 6.36896C196.017 6.36896 196.515 6.78389 196.515 7.36479Z" fill="var(--fill-0, black)"/>
<path id="Vector_20" d="M192.442 12.5929L191.363 13.402C190.948 12.5929 190.056 12.0327 188.977 12.0327C187.96 12.0327 186.923 12.4684 186.923 13.5472C186.923 14.4601 187.649 14.875 189.247 15.207C191.529 15.6841 192.608 16.5347 192.608 18.0492C192.608 20.2691 190.74 21.0575 188.956 21.0575C187.483 21.0575 186.01 20.4766 185.118 19.1695L186.238 18.3397C186.736 19.1903 187.794 19.8542 188.935 19.8542C190.139 19.8542 191.218 19.4185 191.218 18.153C191.218 17.1364 190.201 16.7215 188.355 16.2858C187.213 16.0161 185.574 15.5182 185.574 13.6717C185.574 11.7008 187.276 10.8502 189.039 10.8502C190.388 10.8502 191.819 11.4933 192.442 12.5929Z" fill="var(--fill-0, black)"/>
<path id="Vector_21" d="M183.582 20.8085H182.233C182.192 20.2898 182.15 19.5637 182.15 19.1488H182.109C181.569 20.2691 180.159 21.0575 178.789 21.0575C176.32 21.0575 175.096 19.46 175.096 17.0534V11.0992H176.507V16.4725C176.507 18.5057 177.109 19.8749 179.142 19.8749C180.636 19.8749 182.088 18.6716 182.088 16.0783V11.0992H183.499V18.6716C183.499 19.1903 183.519 20.1446 183.582 20.8085Z" fill="var(--fill-0, black)"/>
<path id="Vector_22" d="M163.11 20.8085V6.12H167.488C169.728 6.12 172.218 6.92911 172.218 9.87512C172.218 11.4104 171.181 12.6759 169.625 13.0286V13.0701C171.533 13.2775 172.944 14.6053 172.944 16.7422C172.944 19.1903 170.849 20.8085 167.467 20.8085H163.11ZM164.604 7.40628V12.5514H167.612C169.044 12.5514 170.724 11.929 170.724 9.97885C170.724 8.11166 169.127 7.40628 167.197 7.40628H164.604ZM164.604 13.7755V19.5222H167.384C169.542 19.5222 171.43 18.7131 171.43 16.6592C171.43 14.7298 170.04 13.7755 167.654 13.7755H164.604Z" fill="var(--fill-0, black)"/>
</g>
<path id="|" d="M155.37 1H156.61V25H155.37V1Z" fill="var(--fill-0, black)"/>
</g>
</svg>
