<svg preserveAspectRatio="none" width="100%" height="100%" overflow="visible" style="display: block;" viewBox="0 0 284 26" fill="none" xmlns="http://www.w3.org/2000/svg">
<g id="Expert Full Service Business">
<g id="Expert Full Service">
<path id="Vector" d="M95.9824 6.12149H105.457V8.40236H98.5947V12.4242H105.063V14.6218H98.5947V20.8H95.9824V6.12149Z" fill="var(--fill-0, black)"/>
<path id="Vector_2" d="M116.305 20.8H113.942V19.2033H113.901C113.466 20.1982 112.284 21.0901 110.811 21.0901C108.22 21.0901 107.142 19.1003 107.142 17.0683V10.8489H109.629V16.3636C109.629 17.5457 109.899 19.017 111.495 19.017C113.07 19.017 113.817 17.6486 113.817 16.3215V10.848H116.305V20.8H116.305Z" fill="var(--fill-0, black)"/>
<path id="Vector_3" d="M118.481 5.12653H120.969V20.8H118.481V5.12653Z" fill="var(--fill-0, black)"/>
<path id="Vector_4" d="M122.971 5.12653H125.458V20.8H122.971V5.12653Z" fill="var(--fill-0, black)"/>
<path id="Vector_5" d="M138.896 9.19044C138.336 8.46507 137.237 7.92595 136.2 7.92595C134.997 7.92595 133.608 8.50625 133.608 9.93729C133.608 11.2851 134.748 11.6791 136.407 12.1967C138.294 12.777 140.698 13.6062 140.698 16.488C140.698 19.6394 138.231 21.1734 135.349 21.1734C133.442 21.1734 131.473 20.448 130.311 19.0797L132.176 17.3379C132.902 18.3328 134.229 18.9552 135.39 18.9552C136.613 18.9552 138.043 18.3543 138.043 16.7782C138.043 15.2442 136.509 14.8089 134.663 14.2278C132.88 13.6681 130.952 12.7976 130.952 10.0609C130.952 7.07519 133.668 5.74893 136.322 5.74893C137.794 5.74893 139.473 6.26743 140.593 7.32414L138.896 9.19044Z" fill="var(--fill-0, black)"/>
<path id="Vector_6" d="M160.13 10.8489H162.667L165.279 18.1053H165.32L167.953 10.8489H170.586L166.626 20.7999H163.973L160.13 10.8489Z" fill="var(--fill-0, black)"/>
<path id="Vector_7" d="M173.154 5.97641C174.066 5.97641 174.771 6.61939 174.771 7.46924C174.771 8.31909 174.066 8.96207 173.154 8.96207C172.241 8.96207 171.579 8.2573 171.579 7.46924C171.579 6.68118 172.242 5.97641 173.154 5.97641ZM171.931 10.849H174.418V20.8H171.931V10.849Z" fill="var(--fill-0, black)"/>
<path id="Vector_8" d="M183.439 13.6063C183.045 13.0466 182.195 12.6319 181.386 12.6319C179.562 12.6319 178.65 14.2699 178.65 15.8245C178.65 17.3791 179.583 19.017 181.469 19.017C182.236 19.017 183.086 18.7063 183.562 18.1251L185.117 19.7003C184.288 20.5913 182.92 21.0892 181.447 21.0892C178.504 21.0892 176.057 19.1406 176.057 15.8236C176.057 12.5889 178.462 10.5579 181.385 10.5579C182.837 10.5579 184.351 11.1382 185.138 12.1125L183.439 13.6063Z" fill="var(--fill-0, black)"/>
<path id="Vector_9" d="M195.604 16.6116H188.037C188.14 18.0212 189.426 19.0582 190.877 19.0582C192.121 19.0582 192.95 18.5603 193.51 17.7731L195.169 19.1003C194.194 20.4274 192.785 21.0901 190.898 21.0901C187.83 21.0901 185.549 19.1209 185.549 15.8863C185.549 12.6731 187.808 10.5579 190.814 10.5579C193.592 10.5579 195.624 12.3615 195.624 15.9481C195.624 16.1764 195.624 16.3841 195.604 16.6116ZM193.137 14.8286C193.137 13.5436 192.411 12.4242 190.794 12.4242C189.322 12.4242 188.14 13.4397 188.037 14.8286H193.137Z" fill="var(--fill-0, black)"/>
<path id="Vector_10" d="M29.8862 6.13045H39.6098V8.41132H32.4985V12.143H39.2364V14.3406H32.4985V18.4869H39.9823V20.8089H29.8862V6.13045Z" fill="var(--fill-0, black)"/>
<path id="Vector_11" d="M45.2954 15.5218L41.7088 10.857H44.6945L46.8509 13.9457L49.0691 10.857H51.9303L48.3644 15.5218L52.4282 20.808H49.4014L46.8097 17.1803L44.1975 20.808H41.2539L45.2954 15.5218Z" fill="var(--fill-0, black)"/>
<path id="Vector_12" d="M55.835 10.857V12.2459H55.8967C56.3947 11.4579 57.5141 10.5668 59.3383 10.5668C62.1789 10.5668 64.1687 12.8478 64.1687 15.7913C64.1687 18.6937 62.3024 21.0991 59.2756 21.0991C57.8866 21.0991 56.6221 20.4767 55.9791 19.4818H55.9379V25H53.4502V10.857H55.835ZM58.7794 12.5988C56.9553 12.5988 55.8565 14.2779 55.8565 15.8334C55.8565 17.3889 56.9553 19.026 58.7794 19.026C60.7075 19.026 61.6406 17.3469 61.6406 15.7913C61.6406 14.2358 60.7075 12.5988 58.7794 12.5988Z" fill="var(--fill-0, black)"/>
<path id="Vector_13" d="M75.5115 16.6206H67.9443C68.0482 18.0301 69.3333 19.0672 70.7849 19.0672C72.0288 19.0672 72.858 18.5692 73.4178 17.7821L75.0763 19.1092C74.1019 20.4364 72.6924 21.0991 70.8055 21.0991C67.7374 21.0991 65.4565 19.1298 65.4565 15.8952C65.4565 12.6821 67.716 10.5668 70.7222 10.5668C73.5001 10.5668 75.5321 12.3705 75.5321 15.957C75.5321 16.1854 75.5321 16.3931 75.5115 16.6206ZM73.0443 14.8376C73.0443 13.5525 72.3189 12.4331 70.7016 12.4331C69.2294 12.4331 68.0482 13.4487 67.9443 14.8376H73.0443Z" fill="var(--fill-0, black)"/>
<path id="Vector_14" d="M76.9511 10.857H79.335V12.5155H79.3762C79.9153 11.3755 80.9729 10.5668 82.2786 10.5668C82.4648 10.5668 82.7138 10.5875 82.8794 10.6287V12.9095C82.5481 12.8263 82.3403 12.8056 82.112 12.8056C79.8732 12.8056 79.438 14.7543 79.438 15.4797V20.8081H76.9502V10.857H76.9511Z" fill="var(--fill-0, black)"/>
<path id="Vector_15" d="M151.993 16.6206H144.426C144.53 18.0301 145.815 19.0672 147.267 19.0672C148.511 19.0672 149.34 18.5692 149.9 17.7821L151.558 19.1092C150.584 20.4364 149.174 21.0991 147.287 21.0991C144.219 21.0991 141.938 19.1298 141.938 15.8952C141.938 12.6821 144.198 10.5668 147.204 10.5668C149.982 10.5668 152.014 12.3705 152.014 15.957C152.014 16.1854 152.014 16.3931 151.993 16.6206ZM149.526 14.8376C149.526 13.5525 148.801 12.4331 147.184 12.4331C145.711 12.4331 144.53 13.4487 144.426 14.8376H149.526Z" fill="var(--fill-0, black)"/>
<path id="Vector_16" d="M153.434 10.857H155.817V12.5155H155.859C156.398 11.3755 157.455 10.5668 158.761 10.5668C158.947 10.5668 159.196 10.5875 159.362 10.6287V12.9095C159.031 12.8263 158.823 12.8056 158.594 12.8056C156.356 12.8056 155.92 14.7543 155.92 15.4797V20.8081H153.433V10.857H153.434Z" fill="var(--fill-0, black)"/>
<path id="Vector_17" d="M83.7144 12.8477V10.8579H85.4561V7.9761H87.9027V10.8579H90.3905V12.8477H87.9027V17.4713C87.9027 18.3632 88.1096 19.0054 89.2084 19.0054C89.5397 19.0054 89.9758 18.9427 90.266 18.7976L90.3493 20.7463C89.914 20.9119 89.2505 21.0158 88.6908 21.0158C86.0579 21.0158 85.4561 19.3985 85.4561 17.491V12.8469H83.7144V12.8477Z" fill="var(--fill-0, black)"/>
</g>
<g id="Checkball">
<path id="Vector_18" d="M12.042 25C18.6692 25 24.042 19.6272 24.042 13C24.042 6.37281 18.6692 1.00001 12.042 1.00001C5.4148 1.00001 0.0420012 6.37281 0.0420012 13C0.0420012 19.6272 5.4148 25 12.042 25Z" fill="var(--fill-0, #D52B1E)"/>
<path id="Vector_19" d="M9.3598 17.3965C7.981 16.4017 6.6558 15.3405 5.3866 14.2153C4.9198 15.2393 4.5014 16.2873 4.1306 17.3593C6.1546 19.0765 8.8614 21.0445 10.7174 22.1513C13.1254 15.9165 16.8826 11.8501 20.4774 9.01247C20.0162 8.03647 19.3894 7.15127 18.6346 6.39647C14.8026 9.33527 11.6238 13.0897 9.3598 17.3965Z" fill="var(--fill-0, white)"/>
</g>
<g id="Business">
<path id="Vector_20" d="M282.836 12.5929L281.757 13.402C281.342 12.5929 280.45 12.0327 279.371 12.0327C278.355 12.0327 277.317 12.4684 277.317 13.5472C277.317 14.4601 278.044 14.875 279.641 15.207C281.923 15.6841 283.002 16.5347 283.002 18.0492C283.002 20.2691 281.135 21.0575 279.351 21.0575C277.878 21.0575 276.405 20.4766 275.512 19.1695L276.633 18.3397C277.131 19.1903 278.189 19.8542 279.33 19.8542C280.533 19.8542 281.612 19.4185 281.612 18.153C281.612 17.1364 280.595 16.7215 278.749 16.2858C277.608 16.0161 275.969 15.5182 275.969 13.6717C275.969 11.7008 277.67 10.8502 279.434 10.8502C280.782 10.8502 282.214 11.4933 282.836 12.5929Z" fill="var(--fill-0, black)"/>
<path id="Vector_21" d="M274.032 12.5929L272.954 13.402C272.539 12.5929 271.647 12.0327 270.568 12.0327C269.551 12.0327 268.514 12.4684 268.514 13.5472C268.514 14.4601 269.24 14.875 270.838 15.207C273.12 15.6841 274.198 16.5347 274.198 18.0492C274.198 20.2691 272.331 21.0575 270.547 21.0575C269.074 21.0575 267.601 20.4766 266.709 19.1695L267.829 18.3397C268.327 19.1903 269.385 19.8542 270.526 19.8542C271.73 19.8542 272.808 19.4185 272.808 18.153C272.808 17.1364 271.792 16.7215 269.945 16.2858C268.804 16.0161 267.165 15.5182 267.165 13.6717C267.165 11.7008 268.867 10.8502 270.63 10.8502C271.979 10.8502 273.41 11.4933 274.032 12.5929Z" fill="var(--fill-0, black)"/>
<path id="Vector_22" d="M257.534 15.207H264.152C264.069 13.3813 262.948 12.0327 260.936 12.0327C259.048 12.0327 257.658 13.5472 257.534 15.207ZM265.583 15.6634C265.583 15.8501 265.583 16.0783 265.562 16.3273H257.513C257.554 18.2774 259.069 19.8542 261.06 19.8542C262.513 19.8542 263.633 19.0451 264.172 18.1737L265.23 19.0036C264.089 20.4558 262.658 21.0575 261.06 21.0575C258.177 21.0575 256.04 18.8791 256.04 15.9538C256.04 13.0286 258.177 10.8502 260.936 10.8502C263.986 10.8502 265.583 13.0078 265.583 15.6634Z" fill="var(--fill-0, black)"/>
<path id="Vector_23" d="M245.489 11.0992H246.838C246.879 11.6178 246.921 12.3439 246.921 12.7589H246.962C247.501 11.6386 248.912 10.8502 250.282 10.8502C252.75 10.8502 253.974 12.4477 253.974 14.8543V20.8085H252.564V15.4352C252.564 13.402 251.962 12.0327 249.929 12.0327C248.435 12.0327 246.983 13.236 246.983 15.8294V20.8085H245.572V13.236C245.572 12.7174 245.551 11.763 245.489 11.0992Z" fill="var(--fill-0, black)"/>
<path id="Vector_24" d="M242.854 11.0992V20.8085H241.444V11.0992H242.854ZM243.145 7.36479C243.145 7.94569 242.647 8.36062 242.149 8.36062C241.651 8.36062 241.153 7.94569 241.153 7.36479C241.153 6.78389 241.651 6.36896 242.149 6.36896C242.647 6.36896 243.145 6.78389 243.145 7.36479Z" fill="var(--fill-0, black)"/>
<path id="Vector_25" d="M239.071 12.5929L237.993 13.402C237.578 12.5929 236.686 12.0327 235.607 12.0327C234.59 12.0327 233.553 12.4684 233.553 13.5472C233.553 14.4601 234.279 14.875 235.876 15.207C238.159 15.6841 239.237 16.5347 239.237 18.0492C239.237 20.2691 237.37 21.0575 235.586 21.0575C234.113 21.0575 232.64 20.4766 231.748 19.1695L232.868 18.3397C233.366 19.1903 234.424 19.8542 235.565 19.8542C236.769 19.8542 237.847 19.4185 237.847 18.153C237.847 17.1364 236.831 16.7215 234.984 16.2858C233.843 16.0161 232.204 15.5182 232.204 13.6717C232.204 11.7008 233.906 10.8502 235.669 10.8502C237.018 10.8502 238.449 11.4933 239.071 12.5929Z" fill="var(--fill-0, black)"/>
<path id="Vector_26" d="M230.212 20.8085H228.863C228.822 20.2898 228.78 19.5637 228.78 19.1488H228.739C228.199 20.2691 226.788 21.0575 225.419 21.0575C222.95 21.0575 221.726 19.46 221.726 17.0534V11.0992H223.137V16.4725C223.137 18.5057 223.739 19.8749 225.772 19.8749C227.266 19.8749 228.718 18.6716 228.718 16.0783V11.0992H230.129V18.6716C230.129 19.1903 230.149 20.1446 230.212 20.8085Z" fill="var(--fill-0, black)"/>
<path id="Vector_27" d="M209.74 20.8085V6.12H214.118C216.358 6.12 218.848 6.92911 218.848 9.87512C218.848 11.4104 217.811 12.6759 216.255 13.0286V13.0701C218.163 13.2775 219.574 14.6053 219.574 16.7422C219.574 19.1903 217.479 20.8085 214.097 20.8085H209.74ZM211.234 7.40628V12.5514H214.242C215.674 12.5514 217.354 11.929 217.354 9.97885C217.354 8.11166 215.757 7.40628 213.827 7.40628H211.234ZM211.234 13.7755V19.5222H214.014C216.172 19.5222 218.059 18.7131 218.059 16.6592C218.059 14.7298 216.669 13.7755 214.284 13.7755H211.234Z" fill="var(--fill-0, black)"/>
</g>
<path id="|" d="M202 0.999985H203.24V25H202V0.999985Z" fill="var(--fill-0, black)"/>
</g>
</svg>
