<svg preserveAspectRatio="none" width="100%" height="100%" overflow="visible" style="display: block;" viewBox="0 0 187 26" fill="none" xmlns="http://www.w3.org/2000/svg">
<g id="Experts Business">
<g id="Experts">
<path id="Vector" d="M29.8863 6.13045H39.6099V8.41132H32.4986V12.143H39.2365V14.3406H32.4986V18.4869H39.9824V20.8089H29.8863V6.13045Z" fill="var(--fill-0, black)"/>
<path id="Vector_2" d="M45.2956 15.5218L41.709 10.857H44.6947L46.8511 13.9457L49.0693 10.857H51.9305L48.3645 15.5218L52.4284 20.8081H49.4015L46.8099 17.1803L44.1977 20.8081H41.2541L45.2956 15.5218Z" fill="var(--fill-0, black)"/>
<path id="Vector_3" d="M55.835 10.857V12.2459H55.8968C56.3947 11.4579 57.5141 10.5668 59.3383 10.5668C62.1789 10.5668 64.1687 12.8478 64.1687 15.7913C64.1687 18.6937 62.3024 21.0991 59.2756 21.0991C57.8866 21.0991 56.6221 20.4767 55.9792 19.4818H55.9379V25H53.4502V10.857H55.835ZM58.7795 12.5988C56.9553 12.5988 55.8565 14.2779 55.8565 15.8334C55.8565 17.3889 56.9553 19.026 58.7795 19.026C60.7075 19.026 61.6406 17.3469 61.6406 15.7913C61.6406 14.2358 60.7075 12.5988 58.7795 12.5988Z" fill="var(--fill-0, black)"/>
<path id="Vector_4" d="M75.5114 16.6206H67.9442C68.0481 18.0301 69.3332 19.0672 70.7848 19.0672C72.0287 19.0672 72.858 18.5692 73.4177 17.7821L75.0762 19.1092C74.1018 20.4364 72.6923 21.0991 70.8054 21.0991C67.7374 21.0991 65.4565 19.1298 65.4565 15.8952C65.4565 12.6821 67.7159 10.5668 70.7221 10.5668C73.5 10.5668 75.532 12.3704 75.532 15.957C75.532 16.1854 75.532 16.3931 75.5114 16.6206ZM73.0442 14.8376C73.0442 13.5525 72.3189 12.4331 70.7015 12.4331C69.2293 12.4331 68.0481 13.4487 67.9442 14.8376H73.0442Z" fill="var(--fill-0, black)"/>
<path id="Vector_5" d="M76.9514 10.857H79.3353V12.5155H79.3765C79.9156 11.3755 80.9732 10.5668 82.2789 10.5668C82.4651 10.5668 82.7141 10.5875 82.8797 10.6287V12.9095C82.5484 12.8262 82.3406 12.8056 82.1123 12.8056C79.8735 12.8056 79.4383 14.7543 79.4383 15.4797V20.8081H76.9505V10.857H76.9514Z" fill="var(--fill-0, black)"/>
<path id="Vector_6" d="M83.7144 12.8477V10.8579H85.4562V7.97611H87.9027V10.8579H90.3905V12.8477H87.9027V17.4713C87.9027 18.3633 88.1096 19.0054 89.2084 19.0054C89.5397 19.0054 89.9759 18.9427 90.266 18.7976L90.3493 20.7463C89.9141 20.9119 89.2505 21.0158 88.6908 21.0158C86.058 21.0158 85.4562 19.3985 85.4562 17.491V12.8469H83.7144V12.8477Z" fill="var(--fill-0, black)"/>
<path id="Vector_7" d="M99.5096 12.0832L97.8928 13.5134C97.4575 12.933 96.6284 12.4356 95.7164 12.4356C94.9287 12.4356 94.1203 12.7258 94.1203 13.5134C94.1203 14.2804 94.8872 14.4877 96.276 14.8193C97.7477 15.1717 99.4889 15.835 99.4889 17.7835C99.4889 20.2087 97.5197 21.1 95.3433 21.1C93.8094 21.1 92.2133 20.5196 91.2598 19.4625L92.8973 17.9286C93.4362 18.6333 94.369 19.1723 95.4469 19.1723C96.1724 19.1723 97.043 18.8821 97.043 17.9908C97.043 17.1616 96.276 16.9129 94.7629 16.5605C93.2912 16.2081 91.8194 15.607 91.8194 13.7414C91.8194 11.5235 93.8094 10.57 95.7786 10.57C97.2088 10.57 98.7012 11.0675 99.5096 12.0832Z" fill="var(--fill-0, black)"/>
</g>
<g id="Checkball">
<path id="Vector_8" d="M12.042 25C18.6692 25 24.042 19.6272 24.042 13C24.042 6.3728 18.6692 1 12.042 1C5.41479 1 0.0419922 6.3728 0.0419922 13C0.0419922 19.6272 5.41479 25 12.042 25Z" fill="var(--fill-0, #D52B1E)"/>
<path id="Vector_9" d="M9.35979 17.3965C7.98099 16.4017 6.65579 15.3405 5.38659 14.2153C4.91979 15.2393 4.50139 16.2873 4.13059 17.3593C6.15459 19.0765 8.86139 21.0445 10.7174 22.1513C13.1254 15.9165 16.8826 11.8501 20.4774 9.01246C20.0162 8.03646 19.3894 7.15126 18.6346 6.39646C14.8026 9.33526 11.6238 13.0897 9.35979 17.3965Z" fill="var(--fill-0, white)"/>
</g>
<g id="Business">
<path id="Vector_10" d="M186.386 12.5929L185.307 13.402C184.892 12.5929 184 12.0327 182.921 12.0327C181.905 12.0327 180.867 12.4684 180.867 13.5472C180.867 14.4601 181.593 14.875 183.191 15.2069C185.473 15.6841 186.552 16.5347 186.552 18.0492C186.552 20.2691 184.685 21.0575 182.9 21.0575C181.427 21.0575 179.954 20.4766 179.062 19.1695L180.183 18.3397C180.681 19.1903 181.739 19.8542 182.88 19.8542C184.083 19.8542 185.162 19.4185 185.162 18.1529C185.162 17.1364 184.145 16.7214 182.299 16.2858C181.158 16.0161 179.519 15.5181 179.519 13.6717C179.519 11.7008 181.22 10.8502 182.983 10.8502C184.332 10.8502 185.763 11.4933 186.386 12.5929Z" fill="var(--fill-0, black)"/>
<path id="Vector_11" d="M177.582 12.5929L176.503 13.402C176.089 12.5929 175.196 12.0327 174.118 12.0327C173.101 12.0327 172.064 12.4684 172.064 13.5472C172.064 14.4601 172.79 14.875 174.387 15.2069C176.669 15.6841 177.748 16.5347 177.748 18.0492C177.748 20.2691 175.881 21.0575 174.097 21.0575C172.624 21.0575 171.151 20.4766 170.259 19.1695L171.379 18.3397C171.877 19.1903 172.935 19.8542 174.076 19.8542C175.279 19.8542 176.358 19.4185 176.358 18.1529C176.358 17.1364 175.342 16.7214 173.495 16.2858C172.354 16.0161 170.715 15.5181 170.715 13.6717C170.715 11.7008 172.416 10.8502 174.18 10.8502C175.528 10.8502 176.96 11.4933 177.582 12.5929Z" fill="var(--fill-0, black)"/>
<path id="Vector_12" d="M161.083 15.2069H167.701C167.618 13.3813 166.498 12.0327 164.486 12.0327C162.598 12.0327 161.208 13.5472 161.083 15.2069ZM169.133 15.6634C169.133 15.8501 169.133 16.0783 169.112 16.3273H161.063C161.104 18.2774 162.619 19.8542 164.61 19.8542C166.063 19.8542 167.183 19.045 167.722 18.1737L168.78 19.0036C167.639 20.4558 166.208 21.0575 164.61 21.0575C161.726 21.0575 159.59 18.8791 159.59 15.9538C159.59 13.0286 161.726 10.8502 164.486 10.8502C167.535 10.8502 169.133 13.0078 169.133 15.6634Z" fill="var(--fill-0, black)"/>
<path id="Vector_13" d="M149.039 11.0991H150.387C150.429 11.6178 150.47 12.3439 150.47 12.7589H150.512C151.051 11.6386 152.462 10.8502 153.831 10.8502C156.3 10.8502 157.524 12.4477 157.524 14.8543V20.8085H156.113V15.4352C156.113 13.402 155.512 12.0327 153.479 12.0327C151.985 12.0327 150.533 13.236 150.533 15.8293V20.8085H149.122V13.236C149.122 12.7174 149.101 11.763 149.039 11.0991Z" fill="var(--fill-0, black)"/>
<path id="Vector_14" d="M146.404 11.0991V20.8085H144.993V11.0991H146.404ZM146.695 7.36478C146.695 7.94568 146.197 8.36061 145.699 8.36061C145.201 8.36061 144.703 7.94568 144.703 7.36478C144.703 6.78388 145.201 6.36895 145.699 6.36895C146.197 6.36895 146.695 6.78388 146.695 7.36478Z" fill="var(--fill-0, black)"/>
<path id="Vector_15" d="M142.621 12.5929L141.542 13.402C141.128 12.5929 140.235 12.0327 139.157 12.0327C138.14 12.0327 137.103 12.4684 137.103 13.5472C137.103 14.4601 137.829 14.875 139.426 15.2069C141.708 15.6841 142.787 16.5347 142.787 18.0492C142.787 20.2691 140.92 21.0575 139.136 21.0575C137.663 21.0575 136.19 20.4766 135.298 19.1695L136.418 18.3397C136.916 19.1903 137.974 19.8542 139.115 19.8542C140.318 19.8542 141.397 19.4185 141.397 18.1529C141.397 17.1364 140.381 16.7214 138.534 16.2858C137.393 16.0161 135.754 15.5181 135.754 13.6717C135.754 11.7008 137.455 10.8502 139.219 10.8502C140.567 10.8502 141.999 11.4933 142.621 12.5929Z" fill="var(--fill-0, black)"/>
<path id="Vector_16" d="M133.761 20.8085H132.413C132.371 20.2898 132.33 19.5637 132.33 19.1488H132.288C131.749 20.2691 130.338 21.0575 128.969 21.0575C126.5 21.0575 125.276 19.46 125.276 17.0534V11.0991H126.687V16.4725C126.687 18.5056 127.288 19.8749 129.322 19.8749C130.815 19.8749 132.268 18.6716 132.268 16.0783V11.0991H133.678V18.6716C133.678 19.1903 133.699 20.1446 133.761 20.8085Z" fill="var(--fill-0, black)"/>
<path id="Vector_17" d="M113.29 20.8085V6.11999H117.667C119.908 6.11999 122.398 6.9291 122.398 9.8751C122.398 11.4103 121.36 12.6759 119.804 13.0286V13.0701C121.713 13.2775 123.124 14.6053 123.124 16.7422C123.124 19.1903 121.028 20.8085 117.647 20.8085H113.29ZM114.784 7.40627V12.5514H117.792C119.223 12.5514 120.904 11.929 120.904 9.97884C120.904 8.11165 119.306 7.40627 117.377 7.40627H114.784ZM114.784 13.7754V19.5222H117.564C119.721 19.5222 121.609 18.7131 121.609 16.6592C121.609 14.7298 120.219 13.7754 117.833 13.7754H114.784Z" fill="var(--fill-0, black)"/>
</g>
<path id="|" d="M105.55 0.999989H106.79V25H105.55V0.999989Z" fill="var(--fill-0, black)"/>
</g>
</svg>
