<svg preserveAspectRatio="none" width="100%" height="100%" overflow="visible" style="display: block;" viewBox="0 0 196 42" fill="none" xmlns="http://www.w3.org/2000/svg">
<g id="intuit-logo-super-blue.intuit-logo-super-blue 1" clip-path="url(#clip0_0_40597)">
<path id="Vector" d="M100.4 23.9751C100.4 33.8634 108.316 41.0904 118.37 41.0904C128.424 41.0904 136.346 33.8744 136.346 23.9751V1.27798H126.606V22.8101C126.606 28.1435 123.042 31.7212 118.343 31.7212C113.643 31.7212 110.079 28.1435 110.079 22.8101V1.27798H100.35L100.4 23.9751Z" fill="var(--fill-0, #236CFF)"/>
<path id="Vector_2" d="M162.37 10.3878H173.989V40.3009H183.723V10.3878H195.336V1.27798H162.37V10.3878Z" fill="var(--fill-0, #236CFF)"/>
<path id="Vector_3" d="M156.079 1.27798H146.344V40.3009H156.079V1.27798Z" fill="var(--fill-0, #236CFF)"/>
<path id="Vector_4" d="M61.0719 10.3878H72.6898V40.3009H82.4246V10.3878H94.0374V1.27798H61.0719V10.3878Z" fill="var(--fill-0, #236CFF)"/>
<path id="Vector_5" d="M10.0037 1.27798H0.269433V40.3009H10.0037V20.7895V1.27798Z" fill="var(--fill-0, #236CFF)"/>
<path id="Vector_6" d="M55.9482 17.6038C55.9482 7.71555 48.0265 0.488436 37.9727 0.488436C27.9188 0.488436 19.997 7.70445 19.997 17.6038V40.3009H29.7313V18.7687C29.7313 13.4354 33.3011 9.85769 37.9947 9.85769C42.6883 9.85769 46.2581 13.4354 46.2581 18.7687V40.3009H55.9926L55.9482 17.6038Z" fill="var(--fill-0, #236CFF)"/>
</g>
<defs>
<clipPath id="clip0_0_40597">
<rect width="196" height="42" fill="white"/>
</clipPath>
</defs>
</svg>
