<svg preserveAspectRatio="none" width="100%" height="100%" overflow="visible" style="display: block;" viewBox="0 0 20 20.0001" fill="none" xmlns="http://www.w3.org/2000/svg">
<g id="TikTok">
<path id="TikTok_2" d="M16.5084 4.27729C16.3735 4.20752 16.2421 4.13104 16.1147 4.04813C15.7444 3.80333 15.4049 3.51489 15.1035 3.18901C14.3494 2.32613 14.0677 1.45076 13.964 0.837875H13.9682C13.8815 0.32915 13.9173 0 13.9227 0H10.4879V13.2818C10.4879 13.4602 10.4879 13.6364 10.4804 13.8106C10.4804 13.8322 10.4783 13.8522 10.4771 13.8756C10.4771 13.8851 10.4771 13.8951 10.475 13.9051C10.475 13.9076 10.475 13.9101 10.475 13.9126C10.4388 14.3892 10.286 14.8495 10.0302 15.2532C9.77427 15.6568 9.42311 15.9914 9.00757 16.2275C8.57449 16.4739 8.08466 16.6032 7.58639 16.6025C5.98606 16.6025 4.68904 15.2976 4.68904 13.686C4.68904 12.0744 5.98606 10.7695 7.58639 10.7695C7.88933 10.7692 8.1904 10.8169 8.47843 10.9107L8.4826 7.41338C7.60821 7.30043 6.7199 7.36992 5.87372 7.61747C5.02753 7.86502 4.24183 8.28524 3.56618 8.85164C2.97415 9.36603 2.47643 9.97979 2.09542 10.6653C1.95043 10.9153 1.40337 11.9198 1.33712 13.5502C1.29546 14.4755 1.57336 15.4342 1.70585 15.8305V15.8388C1.78918 16.0721 2.11208 16.8683 2.63831 17.5395C3.06264 18.078 3.56396 18.5509 4.12615 18.9432V18.9349L4.13448 18.9432C5.79732 20.0732 7.64097 19.999 7.64097 19.999C7.96013 19.9861 9.02924 19.999 10.2433 19.4236C11.5899 18.7857 12.3566 17.8354 12.3566 17.8354C12.8463 17.2675 13.2358 16.6204 13.5082 15.9217C13.819 15.1047 13.9227 14.1247 13.9227 13.7331V6.68675C13.9644 6.71175 14.5194 7.07881 14.5194 7.07881C14.5194 7.07881 15.3189 7.59129 16.5664 7.92502C17.4613 8.16251 18.6671 8.21251 18.6671 8.21251V4.80268C18.2446 4.84851 17.3867 4.71518 16.5084 4.27729Z" fill="var(--fill-0, #205EA3)"/>
</g>
</svg>
