<svg preserveAspectRatio="none" width="100%" height="100%" overflow="visible" style="display: block;" viewBox="0 0 28.1798 19.8533" fill="none" xmlns="http://www.w3.org/2000/svg">
<path id="Youtube" fill-rule="evenodd" clip-rule="evenodd" d="M25.0998 0.5925C26.3123 0.918333 27.2673 1.87917 27.5914 3.1C28.1672 5.26446 28.1795 9.73074 28.1798 9.92043V9.93291C28.1795 10.1226 28.1672 14.5889 27.5914 16.7533C27.2673 17.9733 26.3123 18.935 25.0998 19.2608C22.9023 19.8533 14.0898 19.8533 14.0898 19.8533C14.0898 19.8533 5.27809 19.8533 3.08059 19.2608C1.86809 18.935 0.913089 17.9733 0.588923 16.7533C0.0436802 14.7066 0.00303057 10.6014 0 10.0007V9.85262C0.00303057 9.2519 0.0436802 5.14678 0.588923 3.1C0.913089 1.87917 1.86809 0.918333 3.08059 0.5925C5.27809 0 14.0898 0 14.0898 0C14.0898 0 22.9023 0 25.0998 0.5925ZM18.5731 9.92667L11.2081 5.73667V14.1167L18.5731 9.92667Z" fill="var(--fill-0, #205EA3)"/>
</svg>
