<svg preserveAspectRatio="none" width="100%" height="100%" overflow="visible" style="display: block;" viewBox="0 0 20 20" fill="none" xmlns="http://www.w3.org/2000/svg">
<g id="Instragram">
<path d="M14.0416 0H5.95743C4.37781 0.00185632 2.86345 0.630245 1.74659 1.74729C0.629725 2.86434 0.00159073 4.37882 0 5.95843V14.0426C0.00185632 15.6222 0.630245 17.1366 1.74729 18.2534C2.86434 19.3703 4.37882 19.9984 5.95843 20H14.0426C15.6222 19.9981 17.1366 19.3698 18.2534 18.2527C19.3703 17.1357 19.9984 15.6212 20 14.0416V5.95743C19.9981 4.37781 19.3698 2.86345 18.2527 1.74659C17.1357 0.629725 15.6212 0.00159073 14.0416 0ZM17.9885 14.0416C17.9885 14.5599 17.8864 15.0731 17.688 15.552C17.4897 16.0308 17.199 16.466 16.8325 16.8325C16.466 17.199 16.0308 17.4897 15.552 17.688C15.0731 17.8864 14.5599 17.9885 14.0416 17.9885H5.95743C4.91081 17.9882 3.90716 17.5723 3.16719 16.8321C2.42722 16.0919 2.01152 15.0882 2.01152 14.0416V5.95743C2.01179 4.91081 2.42774 3.90716 3.1679 3.16719C3.90806 2.42722 4.91182 2.01152 5.95843 2.01152H14.0426C15.0892 2.01179 16.0928 2.42774 16.8328 3.1679C17.5728 3.90806 17.9885 4.91182 17.9885 5.95843V14.0426V14.0416Z" fill="var(--fill-0, #205EA3)"/>
<path d="M9.99951 4.82746C8.62854 4.82958 7.31434 5.3752 6.34501 6.34472C5.37568 7.31424 4.83032 8.62854 4.82846 9.99951C4.83005 11.3708 5.37544 12.6855 6.34501 13.6553C7.31459 14.6251 8.62919 15.1707 10.0005 15.1726C11.372 15.171 12.6869 14.6254 13.6567 13.6557C14.6264 12.6859 15.172 11.371 15.1736 9.99951C15.1714 8.62819 14.6255 7.31369 13.6556 6.34431C12.6856 5.37492 11.3708 4.82978 9.99951 4.82846V4.82746ZM9.99951 13.161C9.16128 13.161 8.35739 12.8281 7.76468 12.2353C7.17196 11.6426 6.83898 10.8387 6.83898 10.0005C6.83898 9.16229 7.17196 8.35839 7.76468 7.76568C8.35739 7.17296 9.16128 6.83998 9.99951 6.83998C10.8377 6.83998 11.6416 7.17296 12.2343 7.76568C12.8271 8.35839 13.16 9.16229 13.16 10.0005C13.16 10.8387 12.8271 11.6426 12.2343 12.2353C11.6416 12.8281 10.8377 13.161 9.99951 13.161Z" fill="var(--fill-0, #205EA3)"/>
<path d="M15.1826 6.10571C15.867 6.10571 16.4218 5.55091 16.4218 4.86654C16.4218 4.18216 15.867 3.62737 15.1826 3.62737C14.4982 3.62737 13.9434 4.18216 13.9434 4.86654C13.9434 5.55091 14.4982 6.10571 15.1826 6.10571Z" fill="var(--fill-0, #205EA3)"/>
</g>
</svg>
