<svg width="143" height="27" viewBox="0 0 143 27" fill="none" xmlns="http://www.w3.org/2000/svg">
<path d="M12.0136 24.0281C18.6491 24.0281 24.0273 18.6493 24.0273 12.014C24.0273 5.37889 18.6491 0 12.0136 0C5.37815 0 0 5.37889 0 12.014C0 18.6493 5.37815 24.0281 12.0136 24.0281Z" fill="#2CA01C"/>
<path d="M3.34619 12.0138C3.34619 14.555 5.41349 16.5842 8.00167 16.5842H8.66437V14.8869H8.00167C6.40895 14.8869 5.08076 13.5878 5.08076 12.0138C5.08076 10.4397 6.40895 9.14063 8.00167 9.14063H9.5944V18.0255C9.5944 18.9453 10.3908 19.7229 11.3317 19.7229V7.43382H8.00167C5.41349 7.43382 3.34619 9.46305 3.34619 12.0043V12.0138ZM15.9953 7.44332H15.3326V9.14063H15.9953C17.588 9.14063 18.9162 10.4397 18.9162 12.0138C18.9162 13.5878 17.588 14.8869 15.9953 14.8869H14.4026V6.00201C14.4026 5.08223 13.6062 4.30469 12.668 4.30469V16.5842H15.9953C18.5835 16.5842 20.6535 14.555 20.6535 12.0138C20.6535 9.47251 18.5835 7.44332 15.9953 7.44332Z" fill="white"/>
<path d="M38.7133 26.5127H36.0133V19.7803H35.9751C35.2715 20.8517 33.8969 21.506 32.3915 21.506C29.0915 21.506 27.0625 18.9365 27.0625 15.8263C27.0625 12.7161 29.2333 10.2412 32.3342 10.2412C34.3251 10.2412 35.5387 11.1989 36.0896 12.0428H36.1551V10.5541H38.7542V26.5223H38.7351L38.7133 26.5127ZM32.9124 19.2779C34.9033 19.2779 36.0978 17.5236 36.0978 15.8642C36.0978 14.2048 34.9033 12.4031 32.9124 12.4031C30.8069 12.4031 29.7924 14.1479 29.7924 15.8168C29.7924 17.4856 30.8069 19.2779 32.9124 19.2779Z" fill="black"/>
<path d="M51.365 21.1931H48.7932V19.4864H48.7578C48.2832 20.5579 46.9932 21.4966 45.3923 21.4966C42.575 21.4966 41.3887 19.3725 41.3887 17.1917V10.5352H44.0914V16.4331C44.0914 17.6942 44.3859 19.2683 46.1205 19.2683C47.8578 19.2683 48.6514 17.7986 48.6514 16.3857V10.5352H51.3732V21.1743L51.365 21.1931Z" fill="black"/>
<path d="M54.1221 10.5537H56.8466V21.1927H54.1221V10.5537Z" fill="black"/>
<path d="M66.9434 13.503C66.5179 12.9056 65.5879 12.4694 64.7043 12.4694C62.7134 12.4694 61.7179 14.2141 61.7179 15.883C61.7179 17.5519 62.7325 19.2966 64.7916 19.2966C65.6343 19.2966 66.5534 18.9647 67.077 18.339L68.7652 20.0268C67.8625 20.9844 66.3652 21.5157 64.7643 21.5157C61.557 21.5157 58.8843 19.4293 58.8843 15.8925C58.8843 12.3556 61.5106 10.2695 64.6879 10.2695C66.2697 10.2695 67.9225 10.8859 68.7734 11.9289L66.9161 13.5219L66.9434 13.503Z" fill="black"/>
<path d="M70.1591 4.4375H72.87V15.0387H72.9354L77.0536 10.563H80.5336L75.84 15.38L80.8363 21.2117H77.25L72.9545 15.7593H72.8891V21.2117H70.17V4.4375H70.1509H70.1591Z" fill="black"/>
<path d="M84.8101 4.4375V11.9095H84.8837C85.4456 11.2173 86.5365 10.2501 88.5274 10.2501C91.6174 10.2501 93.7883 12.687 93.7883 15.8352C93.7883 18.9833 91.7592 21.515 88.4592 21.515C86.9428 21.515 85.4728 20.8228 84.7337 19.6092H84.6956V21.2022H82.1265V4.4375H84.8101ZM87.911 12.4121C85.9201 12.4121 84.7228 14.2137 84.7228 15.8731C84.7228 17.5325 85.9201 19.2868 87.911 19.2868C90.0137 19.2868 91.0283 17.4946 91.0283 15.8257C91.0283 14.1568 90.0137 12.4121 87.911 12.4121Z" fill="black"/>
<path d="M101.195 10.251C104.473 10.251 107.091 12.4888 107.091 15.836C107.091 19.1833 104.465 21.5157 101.195 21.5157C97.9223 21.5157 95.2959 19.1833 95.2959 15.836C95.2959 12.4888 97.9223 10.251 101.195 10.251ZM101.195 19.297C103.336 19.297 104.331 17.5049 104.331 15.836C104.331 14.1672 103.336 12.4224 101.195 12.4224C99.0513 12.4224 98.0559 14.1672 98.0559 15.836C98.0559 17.5049 99.0513 19.297 101.195 19.297Z" fill="black"/>
<path d="M114.458 10.251C117.731 10.251 120.357 12.4888 120.357 15.836C120.357 19.1833 117.731 21.5157 114.458 21.5157C111.188 21.5157 108.562 19.1833 108.562 15.836C108.562 12.4888 111.188 10.251 114.458 10.251ZM114.458 19.297C116.604 19.297 117.6 17.5049 117.6 15.836C117.6 14.1672 116.604 12.4224 114.458 12.4224C112.317 12.4224 111.322 14.1672 111.322 15.836C111.322 17.5049 112.317 19.297 114.458 19.297Z" fill="black"/>
<path d="M122.49 4.4375H125.204V15.0387H125.28L129.396 10.563H132.884L128.19 15.38L133.187 21.2117H129.603L125.308 15.7593H125.231V21.2117H122.512V4.4375H122.49Z" fill="black"/>
<path d="M140.563 13.3896C140.089 12.7733 139.189 12.2423 138.193 12.2423C137.332 12.2423 136.451 12.5457 136.451 13.3896C136.451 14.2335 137.293 14.4232 138.802 14.7835C140.413 15.1628 142.309 15.874 142.309 17.9601C142.309 20.5582 140.165 21.5065 137.787 21.5065C136.118 21.5065 134.373 20.8901 133.339 19.7522L135.123 18.1118C135.709 18.8609 136.723 19.4393 137.902 19.4393C138.687 19.4393 139.644 19.1263 139.644 18.1781C139.644 17.2963 138.802 17.0308 137.16 16.6515C135.548 16.2722 133.955 15.6369 133.955 13.6361C133.955 11.2656 136.126 10.251 138.27 10.251C139.824 10.251 141.455 10.782 142.339 11.8724L140.574 13.3991V13.3801L140.563 13.3896Z" fill="black"/>
</svg>
